<svg width="132" height="24" viewBox="0 0 132 24" fill="none" xmlns="http://www.w3.org/2000/svg">
<path d="M93.9902 20.3919L96.8583 24H104.852L98.1208 15.7635L93.9902 20.3919Z" fill="#182045"/>
<path d="M92.5762 10.2732L89.2388 6.06226H81.2744L88.5717 14.8823L92.5762 10.2732Z" fill="#182045"/>
<path d="M80.6504 24H88.4131L109.3 0H101.503L80.6504 24Z" fill="#ED0606"/>
<path d="M127.549 0.0057373H122.639V7.71843H125.848V5.85741H127.551C130.015 5.85741 131.429 4.77907 131.429 2.89679C131.429 1.08602 129.979 0.0057373 127.549 0.0057373ZM125.848 2.33829H127.186C127.652 2.33829 128.208 2.44072 128.208 2.92771C128.208 3.08618 128.208 3.56738 127.186 3.56738H125.848V2.33829Z" fill="#ED0606"/>
<path d="M117.577 4.27281C117.577 5.24487 117.179 5.67775 116.285 5.67775C115.04 5.67775 114.872 4.96852 114.872 4.27281V0H111.542V4.09502C111.542 6.73291 113.157 8.12819 116.214 8.12819C119.285 8.12819 120.908 6.73291 120.908 4.09502V0H117.579V4.27281H117.577Z" fill="#ED0606"/>
<path d="M26.6821 14.0977L20.6667 6.06226H13.1328V23.9999H19.4644V13.7788L21.0099 15.9645L27.0835 23.9999H34.6756V23.6675L28.3149 16.4322L26.6821 14.0977Z" fill="#182045"/>
<path d="M28.3223 13.1643L34.6751 20.4112V6.06226H28.3436L28.3223 13.1643Z" fill="#182045"/>
<path d="M47.7125 6.06226H37.7139V10.3273H40.9116L37.7139 13.516V23.9999H47.7125C54.9031 23.9999 59.3439 20.6335 59.3439 14.9325C59.342 9.0596 54.7305 6.06226 47.7125 6.06226ZM47.1967 19.2092H44.6466V10.8549H47.1967C50.7784 10.8549 52.2968 12.2057 52.2968 15.0813C52.2949 17.8816 50.7765 19.2092 47.1967 19.2092Z" fill="#182045"/>
<path d="M68.1153 19.2092V16.9482H76.6227V13.0406H68.1153V10.8549H78.8004V6.06226H61.1826V10.3293H64.5258L61.1826 13.6609V23.9999H79.4869V19.2092H68.1153Z" fill="#182045"/>
<path d="M0 10.3293H1.51065V13.6088V15.0311V19.7349H0V23.9999H1.51065H8.44336H9.95401V19.7349H8.44336V10.3293H9.95401V6.06226H0V10.3293Z" fill="#182045"/>
</svg>
