<svg width="21" height="21" viewBox="0 0 21 21" fill="none" xmlns="http://www.w3.org/2000/svg">
<path d="M10.5 21C16.299 21 21 16.299 21 10.5C21 4.70101 16.299 0 10.5 0C4.70101 0 0 4.70101 0 10.5C0 16.299 4.70101 21 10.5 21Z" fill="#F0F0F0"/>
<path d="M10.0435 10.5H21C21 9.5523 20.8737 8.63421 20.6383 7.76086H10.0435V10.5Z" fill="#D80027"/>
<path d="M10.0435 5.02174H19.4589C18.8161 3.97289 17.9943 3.04581 17.0361 2.28259H10.0435V5.02174Z" fill="#D80027"/>
<path d="M10.5 21C12.9711 21 15.2425 20.1459 17.0361 18.7174H3.96391C5.75752 20.1459 8.02884 21 10.5 21Z" fill="#D80027"/>
<path d="M1.54111 15.9783H19.4589C19.9749 15.1362 20.3751 14.2159 20.6383 13.2391H0.36171C0.624907 14.2159 1.0251 15.1362 1.54111 15.9783Z" fill="#D80027"/>
<path d="M4.8638 1.63972H5.82065L4.93061 2.28633L5.27059 3.3326L4.38059 2.68599L3.49059 3.3326L3.78427 2.42874C3.00062 3.0815 2.31377 3.84628 1.74776 4.69842H2.05435L1.4878 5.11001C1.39954 5.25726 1.31488 5.40684 1.23375 5.55864L1.50429 6.3913L0.999551 6.02458C0.874084 6.2904 0.759322 6.56221 0.656168 6.83968L0.954229 7.75712H2.05435L1.16431 8.40373L1.50429 9.45L0.614291 8.80339L0.0811699 9.19074C0.0278086 9.61968 0 10.0566 0 10.5H10.5C10.5 4.70105 10.5 4.0174 10.5 0C8.42576 0 6.49216 0.601699 4.8638 1.63972ZM5.27059 9.45L4.38059 8.80339L3.49059 9.45L3.83057 8.40373L2.94053 7.75712H4.04065L4.38059 6.71085L4.72053 7.75712H5.82065L4.93061 8.40373L5.27059 9.45ZM4.93061 5.34503L5.27059 6.3913L4.38059 5.74469L3.49059 6.3913L3.83057 5.34503L2.94053 4.69842H4.04065L4.38059 3.65215L4.72053 4.69842H5.82065L4.93061 5.34503ZM9.03689 9.45L8.14689 8.80339L7.25689 9.45L7.59687 8.40373L6.70683 7.75712H7.80696L8.14689 6.71085L8.48683 7.75712H9.58695L8.69691 8.40373L9.03689 9.45ZM8.69691 5.34503L9.03689 6.3913L8.14689 5.74469L7.25689 6.3913L7.59687 5.34503L6.70683 4.69842H7.80696L8.14689 3.65215L8.48683 4.69842H9.58695L8.69691 5.34503ZM8.69691 2.28633L9.03689 3.3326L8.14689 2.68599L7.25689 3.3326L7.59687 2.28633L6.70683 1.63972H7.80696L8.14689 0.593455L8.48683 1.63972H9.58695L8.69691 2.28633Z" fill="#0052B4"/>
</svg>
