<?xml version="1.0" encoding="utf-8"?><svg xmlns="http://www.w3.org/2000/svg" xmlns:xlink="http://www.w3.org/1999/xlink"><symbol viewBox="0 0 15 19" id="icon-android" xmlns="http://www.w3.org/2000/svg"><path d="M11.44 7.095H3.56a.394.394 0 0 0-.395.394v6.305c0 .953.678 1.748 1.576 1.931v2.01a1.184 1.184 0 0 0 2.365 0v-1.97h.788v1.97c0 .652.53 1.183 1.182 1.183.652 0 1.183-.53 1.183-1.183v-2.01a1.973 1.973 0 0 0 1.576-1.93V7.488a.394.394 0 0 0-.394-.394z"/><path fill-rule="evenodd" clip-rule="evenodd" d="M9.563 2.1l.664-1.55a.394.394 0 1 0-.724-.31l-.665 1.551a4.317 4.317 0 0 0-2.675 0L5.497.241a.393.393 0 1 0-.724.31l.665 1.55a4.338 4.338 0 0 0-2.273 3.812c0 .217.177.394.394.394h7.882a.394.394 0 0 0 .394-.394c0-1.645-.92-3.078-2.272-3.813zm-3.64 2.63a.394.394 0 1 1 0-.788.394.394 0 0 1 0 .788zm2.76-.394a.394.394 0 1 0 .788 0 .394.394 0 0 0-.789 0z"/><path d="M13.806 7.095c-.651 0-1.182.53-1.182 1.182v3.941c0 .652.53 1.182 1.182 1.182.652 0 1.183-.53 1.183-1.182v-3.94c0-.653-.53-1.183-1.183-1.183zM1.195 7.095c-.652 0-1.182.53-1.182 1.182v3.941c0 .652.53 1.182 1.182 1.182.652 0 1.182-.53 1.182-1.182v-3.94c0-.653-.53-1.183-1.182-1.183z"/></symbol><symbol viewBox="0 0 8 6" id="icon-arrow-down" xmlns="http://www.w3.org/2000/svg"><path fill-rule="evenodd" clip-rule="evenodd" d="M1.414.969C.524.969.077 2.046.707 2.676l2.586 2.586a1 1 0 0 0 1.414 0l2.586-2.586c.63-.63.184-1.707-.707-1.707H1.414z"/></symbol><symbol viewBox="0 0 35 43" id="icon-award" xmlns="http://www.w3.org/2000/svg"><path d="M5.316 31.156L.059 37.915l6.066-.759 1.517 5.308 5.308-6.824.024-.031a23.26 23.26 0 0 0-3.436-2.858 23.461 23.461 0 0 0-4.222-1.595zM29.684 31.156c-1.455.394-2.87.927-4.222 1.592a23.19 23.19 0 0 0-3.436 2.858l5.331 6.858 1.517-5.308 6.066.759-5.256-6.759z"/><path d="M33.424 18.957c0-3.177 1.98-6.915.495-9.478-1.53-2.648-5.81-2.782-8.457-4.314C22.897 3.678 20.677 0 17.5 0c-3.178 0-5.397 3.68-7.962 5.163C6.89 6.695 2.61 6.831 1.08 9.476c-1.484 2.566.496 6.304.496 9.481 0 3.177-1.98 6.916-.496 9.479 1.531 2.647 5.811 2.782 8.458 4.313 2.565 1.487 4.784 5.166 7.962 5.166 3.177 0 5.397-3.68 7.962-5.163 2.647-1.532 6.926-1.669 8.457-4.314 1.485-2.565-.495-6.303-.495-9.48z" fill="#ffa511"/><path d="M17.5 31.848c7.12 0 12.89-5.771 12.89-12.89 0-7.12-5.77-12.892-12.89-12.892-7.12 0-12.891 5.772-12.891 12.891 0 7.12 5.771 12.891 12.89 12.891z" fill="#ffdc13"/><path d="M25.024 15.924h-5.197l-1.606-4.941a.758.758 0 0 0-1.44 0l-1.608 4.941H9.976a.759.759 0 0 0-.446 1.372l4.204 3.055-1.606 4.943a.758.758 0 0 0 1.167.848l4.205-3.056 4.204 3.055a.758.758 0 0 0 1.167-.848l-1.606-4.943 4.204-3.055a.759.759 0 0 0-.445-1.37z" fill="#ef2648"/><path d="M33.919 9.479c-.033-.057-.076-.106-.108-.16a36.436 36.436 0 0 1-3.951 5.998c2.012 6.825-1.89 13.99-8.714 16.002a12.886 12.886 0 0 1-12.67-3.165c-2.274.438-4.585.66-6.9.661-.082 0-.162-.005-.244-.006 1.704 2.289 5.687 2.486 8.206 3.943 2.565 1.483 4.784 5.163 7.962 5.163 3.177 0 5.396-3.68 7.962-5.163 2.647-1.532 6.926-1.669 8.457-4.314 1.485-2.565-.495-6.303-.495-9.48 0-3.178 1.98-6.916.495-9.48z" fill="#f08015"/><path d="M21.983 22.558l.888 2.735a.758.758 0 0 1-1.167.848l-2.547-1.852a36.158 36.158 0 0 1-10.683 3.867c5.07 4.99 13.226 4.925 18.215-.145 3.287-3.34 4.5-8.2 3.17-12.693a36.589 36.589 0 0 1-7.876 7.24z" fill="#e5af17"/><path d="M22.872 25.293l-.89-2.734a35.388 35.388 0 0 1-2.825 1.73l2.548 1.852a.758.758 0 0 0 1.167-.848zM28.495 35.64c1.965.001 3.907.442 5.68 1.289l-4.491-5.775c-1.455.395-2.87.928-4.222 1.593a23.19 23.19 0 0 0-3.436 2.857l.962 1.239a13.184 13.184 0 0 1 5.507-1.203zM9.537 32.752a23.508 23.508 0 0 0-4.222-1.593l-.234.303a9.835 9.835 0 0 1 4.077 7.97c-.001.395-.027.79-.075 1.182l3.867-4.974.024-.031a23.263 23.263 0 0 0-3.437-2.857z" fill="#b20d24"/></symbol><symbol viewBox="0 0 8 12" id="icon-back" xmlns="http://www.w3.org/2000/svg"><path d="M.016 6l6-6 1.406 1.406L2.828 6l4.594 4.594L6.016 12l-6-6z"/></symbol><symbol viewBox="0 0 23 25" id="icon-bet" xmlns="http://www.w3.org/2000/svg"><rect x=".5" y=".5" width="22" height="24" rx="3.5" fill="none" stroke="currentColor"/><rect x="5" y="6" width="13" height="1.5" rx=".75" fill="currentColor"/><rect x="5" y="12" width="13" height="1.5" rx=".75" fill="currentColor"/><rect x="5" y="18" width="13" height="1.5" rx=".75" fill="currentColor"/></symbol><symbol viewBox="0 0 9 9" id="icon-close" xmlns="http://www.w3.org/2000/svg"><path d="M1 1l7.39 7.39M8.39 1L1 8.39"/></symbol><symbol viewBox="0 0 24 20" id="icon-datepicker" xmlns="http://www.w3.org/2000/svg"><path fill-rule="evenodd" clip-rule="evenodd" d="M21.188 1.875h1.406c.775 0 1.406.63 1.406 1.406V19.22c0 .259-.21.468-.469.468H.47A.469.469 0 0 1 0 19.22V3.28c0-.775.63-1.406 1.406-1.406h1.407v-.469C2.813.631 3.443 0 4.219 0c.775 0 1.406.63 1.406 1.406v.469h1.078v-.469C6.703.631 7.334 0 8.11 0c.776 0 1.407.63 1.407 1.406v.469h1.078v-.469C10.594.631 11.224 0 12 0c.775 0 1.406.63 1.406 1.406v.469h1.078v-.469a1.408 1.408 0 0 1 2.813 0v.469h1.078v-.469c0-.775.63-1.406 1.406-1.406.776 0 1.407.63 1.407 1.406v.47zM19.78.937a.47.47 0 0 0-.468.47V3.28a.47.47 0 0 0 .937 0V1.406a.47.47 0 0 0-.469-.468zm-4.36.47a.47.47 0 0 1 .938 0V3.28a.47.47 0 0 1-.937 0V1.406zM12 .936a.47.47 0 0 0-.469.47V3.28a.47.47 0 0 0 .938 0V1.406A.47.47 0 0 0 12 .938zm-4.36.47a.47.47 0 0 1 .938 0V3.28a.47.47 0 0 1-.937 0V1.406zM4.22.936a.47.47 0 0 0-.469.47V3.28a.47.47 0 0 0 .938 0V1.406a.47.47 0 0 0-.47-.468zM1.406 2.813h1.407v.468c0 .776.63 1.407 1.406 1.407.775 0 1.406-.631 1.406-1.407v-.468h1.078v.468c0 .776.631 1.407 1.406 1.407.776 0 1.407-.631 1.407-1.407v-.468h1.078v.468c0 .776.63 1.407 1.406 1.407.775 0 1.406-.631 1.406-1.407v-.468h1.078v.468a1.408 1.408 0 0 0 2.813 0v-.468h1.078v.468c0 .776.63 1.407 1.406 1.407.776 0 1.407-.631 1.407-1.407v-.468h1.406a.47.47 0 0 1 .468.468v2.344H.938V3.281a.47.47 0 0 1 .47-.468zM.938 18.75h22.125V6.563H.938V18.75z"/><path d="M4.688 7.969H3.75a.469.469 0 0 0-.469.468v.938c0 .259.21.469.469.469h.938c.258 0 .468-.21.468-.469v-.938a.469.469 0 0 0-.468-.468zM8.578 7.969h-.937a.469.469 0 0 0-.47.468v.938c0 .259.21.469.47.469h.937c.259 0 .469-.21.469-.469v-.938a.469.469 0 0 0-.469-.468zM16.36 7.969h-.938a.469.469 0 0 0-.469.468v.938c0 .259.21.469.469.469h.937c.26 0 .47-.21.47-.469v-.938a.469.469 0 0 0-.47-.468zM12.469 7.969h-.938a.469.469 0 0 0-.469.468v.938c0 .259.21.469.47.469h.937c.259 0 .469-.21.469-.469v-.938a.469.469 0 0 0-.47-.468zM20.25 7.969h-.938a.469.469 0 0 0-.468.468v.938c0 .259.21.469.468.469h.938c.259 0 .469-.21.469-.469v-.938a.469.469 0 0 0-.469-.468zM4.688 11.719H3.75a.469.469 0 0 0-.469.469v.937c0 .259.21.469.469.469h.938c.258 0 .468-.21.468-.469v-.938a.469.469 0 0 0-.468-.468zM8.578 11.719h-.937a.469.469 0 0 0-.47.469v.937c0 .259.21.469.47.469h.937c.259 0 .469-.21.469-.469v-.938a.469.469 0 0 0-.469-.468zM16.36 11.719h-.938a.469.469 0 0 0-.469.469v.937c0 .259.21.469.469.469h.937c.26 0 .47-.21.47-.469v-.938a.469.469 0 0 0-.47-.468zM12.469 11.719h-.938a.469.469 0 0 0-.469.469v.937c0 .259.21.469.47.469h.937c.259 0 .469-.21.469-.469v-.938a.469.469 0 0 0-.47-.468zM20.25 11.719h-.938a.469.469 0 0 0-.468.469v.937c0 .259.21.469.468.469h.938c.259 0 .469-.21.469-.469v-.938a.469.469 0 0 0-.469-.468zM4.688 15.469H3.75a.469.469 0 0 0-.469.469v.937c0 .259.21.469.469.469h.938c.258 0 .468-.21.468-.469v-.938a.469.469 0 0 0-.468-.468zM8.578 15.469h-.937a.469.469 0 0 0-.47.469v.937c0 .259.21.469.47.469h.937c.259 0 .469-.21.469-.469v-.938a.469.469 0 0 0-.469-.468zM16.36 15.469h-.938a.469.469 0 0 0-.469.469v.937c0 .259.21.469.469.469h.937c.26 0 .47-.21.47-.469v-.938a.469.469 0 0 0-.47-.468zM12.469 15.469h-.938a.469.469 0 0 0-.469.469v.937c0 .259.21.469.47.469h.937c.259 0 .469-.21.469-.469v-.938a.469.469 0 0 0-.47-.468zM20.25 15.469h-.938a.469.469 0 0 0-.468.469v.937c0 .259.21.469.468.469h.938c.259 0 .469-.21.469-.469v-.938a.469.469 0 0 0-.469-.468z"/></symbol><symbol viewBox="0 0 9 9" id="icon-delete" xmlns="http://www.w3.org/2000/svg"><path d="M1 1l7.39 7.39M8.39 1L1 8.39"/></symbol><symbol viewBox="0 0 33 29" id="icon-display-down" xmlns="http://www.w3.org/2000/svg"><rect x=".5" y=".5" width="32" height="28" rx="3.5" fill="none" stroke="currentColor"/><rect x="4" y="6.5" width="15" height="2" rx="1"/><path fill-rule="evenodd" clip-rule="evenodd" d="M22.414 5c-.89 0-1.337 1.077-.707 1.707l2.586 2.586a1 1 0 0 0 1.414 0l2.586-2.586c.63-.63.184-1.707-.707-1.707h-5.172z"/><rect x="4" y="13.5" width="15" height="2" rx="1"/><path fill-rule="evenodd" clip-rule="evenodd" d="M22.414 12c-.89 0-1.337 1.077-.707 1.707l2.586 2.586a1 1 0 0 0 1.414 0l2.586-2.586c.63-.63.184-1.707-.707-1.707h-5.172z"/><rect x="4" y="20.5" width="15" height="2" rx="1"/><path fill-rule="evenodd" clip-rule="evenodd" d="M22.414 19c-.89 0-1.337 1.077-.707 1.707l2.586 2.586a1 1 0 0 0 1.414 0l2.586-2.586c.63-.63.184-1.707-.707-1.707h-5.172z"/></symbol><symbol viewBox="0 0 33 29" id="icon-display-up" xmlns="http://www.w3.org/2000/svg"><rect x=".5" y=".5" width="32" height="28" rx="3.5" fill="none" stroke="currentColor"/><rect x="4" y="6" width="15" height="2" rx="1"/><rect x="4" y="11" width="25" height="2" rx="1"/><path fill-rule="evenodd" clip-rule="evenodd" d="M22.414 9c-.89 0-1.337-1.077-.707-1.707l2.586-2.586a1 1 0 0 1 1.414 0l2.586 2.586c.63.63.184 1.707-.707 1.707h-5.172z"/><rect x="4" y="16" width="15" height="2" rx="1"/><rect x="4" y="21" width="25" height="2" rx="1"/><path fill-rule="evenodd" clip-rule="evenodd" d="M22.414 19c-.89 0-1.337-1.077-.707-1.707l2.586-2.586a1 1 0 0 1 1.414 0l2.586 2.586c.63.63.184 1.707-.707 1.707h-5.172z"/></symbol><symbol viewBox="0 0 20 23" id="icon-file" xmlns="http://www.w3.org/2000/svg"><path d="M18.363 1.636a5.6 5.6 0 0 0-7.912 0l-8.329 8.33a.658.658 0 1 0 .93.93l8.33-8.33c1.617-1.615 4.433-1.615 6.05 0a4.283 4.283 0 0 1 0 6.05L5.8 20.378c-.995.994-2.728.994-3.723 0a2.635 2.635 0 0 1 0-3.723L13.244 5.358a1.011 1.011 0 0 1 1.396 0 .989.989 0 0 1 0 1.397l-10.7 10.83c-.222.223-.222.71 0 .931a.658.658 0 0 0 .93 0l10.7-10.83a2.305 2.305 0 0 0 0-3.258c-.87-.87-2.388-.87-3.257 0L1.148 15.725c-1.528 1.527-1.528 4.056 0 5.583a3.914 3.914 0 0 0 2.792 1.148 3.912 3.912 0 0 0 2.792-1.148l11.63-11.762a5.6 5.6 0 0 0 0-7.91z"/></symbol><symbol viewBox="0 0 23 25" id="icon-gift" xmlns="http://www.w3.org/2000/svg"><path fill-rule="evenodd" clip-rule="evenodd" d="M10.292 5.445a.41.41 0 0 1-.447.147 7.226 7.226 0 0 1-2.717-1.488 2.474 2.474 0 0 1-.732-1.738v-.007c0-.077.008-.155.02-.231.01-.065.028-.128.05-.189a.41.41 0 0 1 .236-.237 2.281 2.281 0 0 1 2.166.663 7.223 7.223 0 0 1 1.488 2.718.41.41 0 0 1-.064.362zM7.334 2.952c.085.214.213.41.375.572h-.002c.461.409.987.738 1.555.975a5.568 5.568 0 0 0-.971-1.553 1.694 1.694 0 0 0-1.07-.492 1.562 1.562 0 0 0 .027.201l.005.027.011.044.005.018.005.022a1.085 1.085 0 0 0 .06.182v.004z"/><path fill-rule="evenodd" clip-rule="evenodd" d="M22.54 5.892h-6.326c.274-.187.53-.397.768-.628 1.466-1.47 1.514-3.7.577-4.636-.936-.937-3.165-.89-4.637.578a8.039 8.039 0 0 0-1.447 2.22 8.03 8.03 0 0 0-1.448-2.221C8.557-.261 6.327-.309 5.391.628c-.937.936-.888 3.165.578 4.636.237.231.494.441.767.628H.411a.41.41 0 0 0-.41.41V10.4c0 .226.183.41.41.41h.82v11.884a2.052 2.052 0 0 0 2.048 2.05h16.392a2.051 2.051 0 0 0 2.05-2.05V10.81h.819a.41.41 0 0 0 .41-.41V6.302a.41.41 0 0 0-.41-.41zm-9.038-4.107C14.68.611 16.398.625 16.98 1.207c.582.582.596 2.3-.578 3.478a6.864 6.864 0 0 1-1.818 1.207h-2.449v-.026c0-.094-.007-.188-.016-.284l-.007-.067-.003-.027a4.063 4.063 0 0 0-.05-.317 5.265 5.265 0 0 0-.065-.3l-.004-.018-.006-.023a9.773 9.773 0 0 0-.062-.227l-.005-.019-.005-.017-.005-.017a7.811 7.811 0 0 1 1.595-2.765zM9.836 6.712V9.99h3.279V6.712H9.836zM6.55 4.685C5.374 3.507 5.389 1.79 5.97 1.207c.582-.583 2.299-.596 3.476.577a7.873 7.873 0 0 1 1.755 3.305l.021.094.004.02a3.957 3.957 0 0 1 .06.323l.008.056c.013.103.02.206.02.309H8.368a6.868 6.868 0 0 1-1.818-1.206zm2.468 2.027H.82V9.99h8.196V6.712zM2.05 22.694V10.81h7.786v13.114H3.28a1.23 1.23 0 0 1-1.229-1.23zm8.606-11.884v13.114h1.639V10.81h-1.64zM20.9 22.694c0 .679-.55 1.23-1.23 1.23h-6.556V10.81H20.9v11.884zM13.934 9.99h8.196V6.712h-8.196V9.99z"/><path fill-rule="evenodd" clip-rule="evenodd" d="M13.102 5.594a.41.41 0 0 1-.509-.51 7.207 7.207 0 0 1 1.49-2.718 2.32 2.32 0 0 1 2.167-.664.407.407 0 0 1 .235.235 2.32 2.32 0 0 1-.664 2.167 7.2 7.2 0 0 1-2.719 1.49zm2.632-3.14a1.7 1.7 0 0 0-1.071.491c-.41.46-.741.987-.978 1.557a5.539 5.539 0 0 0 1.557-.977c.287-.287.461-.667.492-1.072z"/></symbol><symbol viewBox="0 0 15 19" id="icon-ios" xmlns="http://www.w3.org/2000/svg"><path d="M4.974 18.286C2.252 18.27 0 12.715 0 9.886c0-4.622 3.467-5.634 4.803-5.634.602 0 1.245.237 1.812.446.397.146.807.296 1.035.296.137 0 .458-.128.742-.24.606-.241 1.36-.541 2.238-.541h.005c.656 0 2.643.144 3.838 1.938l.28.42-.403.305c-.575.434-1.625 1.226-1.625 2.795 0 1.858 1.189 2.573 1.76 2.917.252.151.513.308.513.65 0 .223-1.783 5.02-4.372 5.02-.633 0-1.081-.19-1.476-.358-.4-.17-.744-.317-1.314-.317-.289 0-.654.137-1.04.282-.53.197-1.127.42-1.806.42h-.017zM10.905 0c.068 2.431-1.671 4.118-3.408 4.012C7.211 2.072 9.233 0 10.905 0z"/></symbol><symbol viewBox="0 0 10 14" id="icon-lock" xmlns="http://www.w3.org/2000/svg"><path fill-rule="evenodd" clip-rule="evenodd" d="M9.722 5H8.89V3.889A3.893 3.893 0 0 0 5 0a3.893 3.893 0 0 0-3.889 3.889V5H.278A.278.278 0 0 0 0 5.278v6.944c0 .613.498 1.111 1.111 1.111H8.89c.613 0 1.111-.498 1.111-1.11V5.277A.278.278 0 0 0 9.722 5zm-3.89 5.803a.278.278 0 0 1-.276.308H4.444a.278.278 0 0 1-.276-.308l.176-1.576a1.099 1.099 0 0 1-.455-.894 1.112 1.112 0 0 1 2.222 0c0 .36-.17.687-.454.894l.175 1.576zM2.778 3.889V5h4.444V3.889A2.225 2.225 0 0 0 5 1.667a2.225 2.225 0 0 0-2.222 2.222z"/></symbol><symbol viewBox="0 0 15 15" id="icon-move" xmlns="http://www.w3.org/2000/svg"><path d="M13.242 0H1.758A1.76 1.76 0 0 0 0 1.758v2.344h1.172V1.758c0-.323.263-.586.586-.586h11.484c.323 0 .586.263.586.586v11.484a.587.587 0 0 1-.586.586H1.758a.587.587 0 0 1-.586-.586v-2.344H0v2.344C0 14.212.789 15 1.758 15h11.484A1.76 1.76 0 0 0 15 13.242V1.758A1.76 1.76 0 0 0 13.242 0z"/><path d="M7.031 3.859l-.828.829 2.226 2.226H0v1.172h8.43l-2.227 2.226.828.83L10.672 7.5l-3.64-3.641z"/></symbol><symbol viewBox="0 0 25 25" id="icon-profile" xmlns="http://www.w3.org/2000/svg"><path fill-rule="evenodd" clip-rule="evenodd" d="M25 12.5C25 5.608 19.392 0 12.5 0S0 5.608 0 12.5c0 3.64 1.565 6.922 4.057 9.208l-.012.01.406.343.042.032a12.537 12.537 0 0 0 .705.542c.074.053.147.106.222.158.243.168.492.326.747.477l.167.096a12.501 12.501 0 0 0 .873.454l.014.006.032.014c.95.442 1.963.766 3.023.957l.084.015a12.494 12.494 0 0 0 1.06.138l.062.005c.335.027.674.045 1.018.045.34 0 .676-.018 1.01-.044l.063-.005.064-.005c.334-.03.664-.075.99-.13l.01-.002.075-.014a12.389 12.389 0 0 0 2.98-.934l.043-.02.061-.027a12.587 12.587 0 0 0 1.742-.995c.067-.046.133-.094.2-.142l.05-.036c.199-.144.395-.292.585-.447l.058-.044c.024-.018.049-.035.071-.055l.416-.347-.012-.01A12.468 12.468 0 0 0 25 12.5zm-24.09 0C.91 6.109 6.108.91 12.5.91S24.09 6.108 24.09 12.5c0 3.444-1.51 6.54-3.903 8.665a3.403 3.403 0 0 0-.406-.244l-3.849-1.924a1.007 1.007 0 0 1-.56-.906v-1.344c.09-.11.184-.235.28-.372a9.261 9.261 0 0 0 1.19-2.328 1.65 1.65 0 0 0 .948-1.495V10.94c0-.395-.145-.777-.404-1.077V7.742c.024-.236.108-1.567-.855-2.665-.838-.957-2.194-1.44-4.031-1.44-1.837 0-3.193.483-4.03 1.44-.964 1.098-.88 2.429-.856 2.665v2.121c-.259.3-.404.683-.404 1.077v1.611c0 .5.225.968.61 1.283.368 1.442 1.125 2.534 1.405 2.904v1.315c0 .371-.202.712-.528.89l-3.594 1.96a3.285 3.285 0 0 0-.342.217A11.563 11.563 0 0 1 .91 12.5zm17.904 9.712a11.592 11.592 0 0 0 .538-.37l.095-.07a3.829 3.829 0 0 0-.072-.038l-3.85-1.924a1.911 1.911 0 0 1-1.062-1.72v-1.68l.113-.13c.1-.113.215-.262.335-.43a8.41 8.41 0 0 0 1.134-2.288l.073-.225.226-.07a.76.76 0 0 0 .537-.715V10.94a.743.743 0 0 0-.254-.557l-.15-.135.004-2.591c.003-.028.12-1.13-.642-1.992-.659-.743-1.782-1.12-3.339-1.12-1.563 0-2.69.38-3.347 1.129-.77.878-.636 1.97-.634 1.982l.004.06v2.531l-.15.136a.743.743 0 0 0-.253.556v1.61c0 .256.13.492.35.634l.154.1.041.18c.372 1.619 1.355 2.814 1.365 2.825l.104.127v1.637c0 .704-.384 1.351-1.002 1.688l-3.594 1.96-.043.025.03.024.03.024a11.516 11.516 0 0 0 .806.55 11.685 11.685 0 0 0 .745.43l.038.02c.255.132.512.258.775.371l.006.003c.278.119.56.227.846.324l.054.018c.576.193 1.167.34 1.768.441l.038.007a11.815 11.815 0 0 0 .971.115l.037.002c.286.022.573.036.861.036.285 0 .569-.014.85-.035l.037-.003a11.632 11.632 0 0 0 .968-.113l.012-.002.012-.002c.3-.05.599-.11.893-.183h.003a11.568 11.568 0 0 0 2.509-.942l.054-.027.094-.049c.223-.118.44-.244.655-.377.07-.043.137-.087.204-.13l.023-.016z"/></symbol><symbol viewBox="0 0 40 48" id="icon-shield" xmlns="http://www.w3.org/2000/svg"><path fill-rule="evenodd" clip-rule="evenodd" d="M19.997 0c5.306 5.159 11.58 7.499 19.77 7.499 0 1.29.026 2.635.052 4.018.248 13.01.561 29.414-19.822 36.479C-.384 40.931-.07 24.527.177 11.517.204 10.134.23 8.79.23 7.5c8.19 0 14.463-2.34 19.768-7.499zm-8.223 24.554l6.586 6.587 9.862-9.862-2.949-2.949-6.913 6.913-3.637-3.638-2.95 2.95z"/></symbol><symbol viewBox="0 0 8 16" id="icon-social-facebook" xmlns="http://www.w3.org/2000/svg"><path d="M7.698.003L5.778 0C3.625 0 2.232 1.545 2.232 3.938v1.816H.3C.136 5.754 0 5.9 0 6.08v2.63c0 .18.135.326.302.326H2.23v6.638c0 .18.135.326.301.326H5.05c.166 0 .302-.146.302-.326V9.036h2.256c.167 0 .302-.146.302-.326l.002-2.63a.348.348 0 0 0-.088-.231.29.29 0 0 0-.214-.097H5.351v-1.54c0-.738.163-1.115 1.054-1.115h1.293c.167 0 .302-.146.302-.326V.33c0-.18-.135-.327-.302-.327z"/></symbol><symbol viewBox="0 0 18 18" id="icon-social-instagram" xmlns="http://www.w3.org/2000/svg"><path d="M13.033 0H4.967A4.973 4.973 0 0 0 0 4.967v8.065A4.972 4.972 0 0 0 4.967 18h8.065A4.973 4.973 0 0 0 18 13.032V4.967A4.973 4.973 0 0 0 13.033 0zm3.37 13.033a3.373 3.373 0 0 1-3.37 3.37H4.966a3.374 3.374 0 0 1-3.37-3.37V4.967a3.374 3.374 0 0 1 3.37-3.37h8.065a3.375 3.375 0 0 1 3.37 3.37v8.066z"/><path d="M9 4.362A4.643 4.643 0 0 0 4.362 9 4.643 4.643 0 0 0 9 13.638 4.643 4.643 0 0 0 13.638 9 4.643 4.643 0 0 0 9 4.362zm0 7.679A3.044 3.044 0 0 1 5.96 9 3.044 3.044 0 0 1 9 5.96 3.044 3.044 0 0 1 12.041 9a3.044 3.044 0 0 1-3.04 3.04zM13.833 3.008a1.176 1.176 0 0 0-1.171 1.171c0 .308.125.61.343.828.218.218.52.343.828.343.309 0 .61-.125.828-.343a1.176 1.176 0 0 0 0-1.657 1.176 1.176 0 0 0-.828-.342z"/></symbol><symbol viewBox="0 0 17 14" id="icon-social-twitter" xmlns="http://www.w3.org/2000/svg"><path d="M17 1.657a7.196 7.196 0 0 1-2.008.558A3.505 3.505 0 0 0 16.525.263a6.908 6.908 0 0 1-2.21.855A3.47 3.47 0 0 0 11.77 0C9.84 0 8.286 1.587 8.286 3.533c0 .28.023.55.08.806-2.896-.143-5.46-1.55-7.183-3.695A3.592 3.592 0 0 0 .706 2.43a3.55 3.55 0 0 0 1.548 2.935A3.407 3.407 0 0 1 .68 4.93v.039c0 1.717 1.208 3.143 2.792 3.471a3.429 3.429 0 0 1-.914.116c-.223 0-.448-.012-.66-.06.452 1.4 1.733 2.428 3.257 2.461a6.943 6.943 0 0 1-4.32 1.507c-.287 0-.56-.013-.835-.049A9.72 9.72 0 0 0 5.346 14c6.414 0 9.92-5.385 9.92-10.052a9.31 9.31 0 0 0-.013-.457A7.002 7.002 0 0 0 17 1.657z"/></symbol><symbol viewBox="0 0 16 9" id="icon-social-vk" xmlns="http://www.w3.org/2000/svg"><path d="M15.915 8.128a1.032 1.032 0 0 0-.054-.103c-.278-.493-.809-1.098-1.591-1.815l-.017-.016-.008-.008-.009-.009h-.008c-.356-.334-.58-.558-.675-.673-.172-.22-.21-.441-.117-.666.067-.17.317-.528.75-1.075.228-.29.409-.523.542-.699.96-1.259 1.377-2.064 1.25-2.414l-.05-.082c-.033-.05-.12-.094-.258-.135a1.33 1.33 0 0 0-.534-.02l-2.399.016a.316.316 0 0 0-.166.004l-.108.024-.042.02-.034.026a.373.373 0 0 0-.091.086.552.552 0 0 0-.083.143 13.349 13.349 0 0 1-.892 1.848c-.205.34-.394.634-.566.883-.172.249-.317.432-.433.55a3.036 3.036 0 0 1-.317.283c-.094.072-.166.102-.216.09a5.966 5.966 0 0 1-.142-.032.552.552 0 0 1-.187-.201.897.897 0 0 1-.096-.32 3.51 3.51 0 0 1-.026-.727c.006-.17.009-.285.009-.345 0-.208.004-.434.012-.678l.021-.579c.006-.142.008-.292.008-.452 0-.159-.01-.283-.029-.373a1.271 1.271 0 0 0-.087-.263.444.444 0 0 0-.17-.197.974.974 0 0 0-.28-.111A5.624 5.624 0 0 0 7.698 0C6.665-.009 6 .056 5.706.198c-.116.06-.222.143-.316.247-.1.12-.114.186-.042.197.333.049.57.167.708.353l.05.098c.039.071.078.197.117.378.039.18.064.38.075.6.028.4.028.741 0 1.026a11.95 11.95 0 0 1-.08.665 1.322 1.322 0 0 1-.212.567.143.143 0 0 1-.041.041.63.63 0 0 1-.225.041c-.078 0-.172-.038-.284-.115a2.01 2.01 0 0 1-.345-.316 4.213 4.213 0 0 1-.404-.563 9.73 9.73 0 0 1-.467-.854l-.133-.238a20.286 20.286 0 0 1-.342-.67 12.776 12.776 0 0 1-.383-.849.542.542 0 0 0-.2-.263L3.141.52a.879.879 0 0 0-.325-.123L.533.412C.3.412.142.464.058.568l-.033.05A.264.264 0 0 0 0 .747c0 .06.017.135.05.223.333.772.695 1.516 1.087 2.233.392.717.732 1.295 1.02 1.733.29.438.584.851.883 1.24.3.389.499.638.596.747.097.11.173.192.229.247l.208.197c.133.131.33.289.587.472.259.184.545.364.859.542.314.178.679.323 1.095.436.417.112.822.157 1.216.135h.958c.195-.016.342-.076.442-.18l.033-.041a.544.544 0 0 0 .062-.152.821.821 0 0 0 .03-.226 2.666 2.666 0 0 1 .054-.636c.04-.19.089-.331.141-.428a1.047 1.047 0 0 1 .321-.36.554.554 0 0 1 .067-.03c.133-.043.29-.001.47.128.181.128.35.287.509.476.158.19.348.401.57.636.223.236.417.41.583.526l.167.099c.111.065.256.126.433.18a.947.947 0 0 0 .466.041l2.133-.032c.211 0 .375-.035.491-.103.117-.069.186-.144.209-.226a.632.632 0 0 0 .004-.28 1.017 1.017 0 0 0-.058-.217z"/></symbol><symbol viewBox="0 0 16 20" id="icon-sticky-acc" xmlns="http://www.w3.org/2000/svg"><path d="M8 9.781c2.224 0 4.026-2.19 4.026-4.89C12.026 2.19 11.435 0 8 0 4.565 0 3.973 2.19 3.973 4.89c0 2.702 1.803 4.891 4.027 4.891zM.395 13.249c0-.165-.002-.047 0 0zM15.605 13.377c.002-.045 0-.312 0 0zM15.596 17.051c-.074-4.705-.689-6.046-5.391-6.894 0 0-.662.843-2.205.843-1.543 0-2.205-.843-2.205-.843-4.651.839-5.303 2.16-5.389 6.741-.007.375-.01.394-.011.35v.495S1.515 20 8 20s7.605-2.257 7.605-2.257v-.365c-.001.026-.004-.026-.009-.327z"/></symbol><symbol viewBox="0 0 20 20" id="icon-sticky-coupon" xmlns="http://www.w3.org/2000/svg"><g clip-path="url(#awclip0)"><path d="M4.04 14.266v5.347c0 .347.282.63.63.63h3.19a.63.63 0 0 0 .628-.63c0-.834.679-1.512 1.512-1.512.834 0 1.512.678 1.512 1.512 0 .347.281.63.63.63h3.19a.63.63 0 0 0 .628-.63v-5.347H4.04zM8.488.871A.63.63 0 0 0 7.86.242H4.67a.63.63 0 0 0-.63.63v12.136H15.96V.87a.63.63 0 0 0-.629-.629h-3.19a.63.63 0 0 0-.63.63c0 .833-.677 1.511-1.51 1.511A1.513 1.513 0 0 1 8.487.871z"/></g><defs><clipPath id="awclip0"><path transform="rotate(-90 10 10)" d="M0 0h20v20H0z"/></clipPath></defs></symbol><symbol viewBox="0 0 13 20" id="icon-sticky-index" xmlns="http://www.w3.org/2000/svg"><path d="M10.253 0h-.774l-.357 1.442A1.361 1.361 0 0 1 7.789 2.5H4.45a1.362 1.362 0 0 1-1.337-1.08L2.829 0h-.843A1.989 1.989 0 0 0 0 1.986v16.028C0 19.109.891 20 1.986 20h8.267a1.989 1.989 0 0 0 1.986-1.986V1.986A1.989 1.989 0 0 0 10.253 0zM6.314 16.376a.607.607 0 0 1-.607.606h-2.99a.607.607 0 0 1-.607-.606v-5.723c0-.335.271-.606.606-.606h2.991c.335 0 .607.271.607.606v5.723zm3.21-2.255H7.997a.607.607 0 0 1 0-1.213h1.525a.607.607 0 0 1 0 1.213zm0-2.86H7.997a.607.607 0 0 1 0-1.214h1.525a.606.606 0 1 1 0 1.213zm.606-2.749a.607.607 0 0 1-.607.607H2.716a.607.607 0 0 1-.606-.607v-3.1c0-.335.271-.607.606-.607h6.807c.335 0 .607.272.607.607v3.1z"/></symbol><symbol viewBox="0 0 20 20" id="icon-sticky-line" xmlns="http://www.w3.org/2000/svg"><g clip-path="url(#ayclip0)"><path d="M17.5 3.124H5.006a1.25 1.25 0 0 0 0 2.499h12.496a1.25 1.25 0 0 0 0-2.5zM2.506 4.374a1.25 1.25 0 0 0-2.499 0c-.01.08-.01.162 0 .243.014.082.037.161.069.238a1.45 1.45 0 0 0 .275.406c.056.056.12.107.187.15.066.048.137.087.212.118.083.043.172.075.263.094.08.01.163.01.244 0 .33 0 .646-.13.88-.362a1.45 1.45 0 0 0 .275-.406 1.16 1.16 0 0 0 .094-.238c.01-.08.01-.163 0-.243zM2.506 9.996c.01-.08.01-.162 0-.243a1.012 1.012 0 0 0-.094-.231 1.249 1.249 0 0 0-.274-.407A1.25 1.25 0 0 0 .213 10.69a1.2 1.2 0 0 0 .163.187c.055.06.118.113.187.157a1.066 1.066 0 0 0 .45.187c.08.018.162.026.244.025.08.01.162.01.243 0 .08-.014.157-.037.231-.069.078-.03.151-.07.22-.118a.915.915 0 0 0 .187-.157.912.912 0 0 0 .156-.187c.048-.066.088-.137.118-.213.043-.082.075-.17.094-.262.01-.08.01-.163 0-.244zM2.506 15.62c.01-.081.01-.163 0-.244a1.064 1.064 0 0 0-.094-.238 1.448 1.448 0 0 0-.118-.212.915.915 0 0 0-.157-.188 1.25 1.25 0 0 0-1.761 0 .915.915 0 0 0-.157.188 1.447 1.447 0 0 0-.118.212 1.025 1.025 0 0 0-.07.238A1.25 1.25 0 0 0 .376 16.5c.056.06.119.112.188.156a1.056 1.056 0 0 0 .45.187c.08.018.162.026.243.025.081.01.163.01.244 0 .08-.014.157-.037.231-.069.078-.03.151-.07.219-.118a.912.912 0 0 0 .187-.157.911.911 0 0 0 .157-.187c.048-.066.088-.137.118-.212a1.06 1.06 0 0 0 .094-.263c.01-.08.01-.163 0-.243zM18.75 8.747H5.005a1.25 1.25 0 0 0 0 2.499H18.75a1.25 1.25 0 1 0 0-2.5zM13.127 14.37H5.005a1.25 1.25 0 0 0 0 2.5h8.122a1.25 1.25 0 0 0 0-2.5z"/></g><defs><clipPath id="ayclip0"><path d="M0 0h20v20H0z"/></clipPath></defs></symbol><symbol viewBox="0 0 19 22" id="icon-sticky-live" xmlns="http://www.w3.org/2000/svg"><g clip-path="url(#azclip0)"><path d="M16.959 5.74H2.041c-.541 0-1.06.222-1.443.616A2.14 2.14 0 0 0 0 7.843v9.183c0 .558.216 1.093.598 1.487.383.395.902.617 1.443.617h14.918c.541 0 1.06-.222 1.442-.617A2.14 2.14 0 0 0 19 17.026V7.843a2.14 2.14 0 0 0-.599-1.487 2.012 2.012 0 0 0-1.442-.617zm.186 10.904a.583.583 0 0 1-.163.405.548.548 0 0 1-.394.168H2.412a.548.548 0 0 1-.393-.168.583.583 0 0 1-.164-.405V8.226c0-.152.06-.298.164-.406a.548.548 0 0 1 .393-.168h14.176c.147 0 .29.06.393.168a.583.583 0 0 1 .163.406v8.417z"/><rect x="4.75" y="20.087" width="9.5" height="1.913" rx=".957"/><path d="M7.75 4.334a3.187 3.187 0 0 0-.672.598h4.844a3.174 3.174 0 0 0-.673-.598L12.97.806a.564.564 0 0 0-.247-.767.553.553 0 0 0-.753.275l-1.744 3.58a3.201 3.201 0 0 0-1.447 0L7.034.314a.56.56 0 0 0-.537-.322.554.554 0 0 0-.495.383.564.564 0 0 0 .032.432l1.717 3.527z"/></g><defs><clipPath id="azclip0"><path d="M0 0h19v22H0z"/></clipPath></defs></symbol><symbol viewBox="0 0 22 15" id="icon-support" xmlns="http://www.w3.org/2000/svg"><path fill-rule="evenodd" clip-rule="evenodd" d="M1 .037a1 1 0 0 0-1 1v12.566a1 1 0 0 0 1 1h19.973a1 1 0 0 0 1-1V1.037a1 1 0 0 0-1-1H1zm9.987 8.995L1.974 1.118H20l-9.012 7.914zM1.08 12.864l6.317-5.547L1.08 1.771v11.093zm7.135-4.827l2.771 2.433 2.772-2.433 6.247 5.485H1.969l6.246-5.485zM20.893 1.77l-6.317 5.547 6.317 5.546V1.771z"/></symbol><symbol viewBox="0 0 25 25" id="icon-tooltip" xmlns="http://www.w3.org/2000/svg"><path fill-rule="evenodd" clip-rule="evenodd" d="M12.5 19.702a1.22 1.22 0 1 0 0-2.441 1.22 1.22 0 0 0 0 2.441z" fill="currentColor"/><path fill-rule="evenodd" clip-rule="evenodd" d="M0 12.5C0 5.59 5.592 0 12.5 0 19.41 0 25 5.592 25 12.5 25 19.41 19.408 25 12.5 25 5.59 25 0 19.408 0 12.5zm1.953 0c0 5.83 4.718 10.547 10.547 10.547 5.83 0 10.547-4.718 10.547-10.547 0-5.83-4.718-10.547-10.547-10.547A10.541 10.541 0 0 0 1.953 12.5z" fill="#d7dde4"/><path fill-rule="evenodd" clip-rule="evenodd" d="M12.5 6.274a3.91 3.91 0 0 0-3.906 3.907.977.977 0 0 0 1.953 0c0-1.077.876-1.953 1.953-1.953s1.953.876 1.953 1.953a1.955 1.955 0 0 1-1.953 1.953.977.977 0 0 0-.977.976v2.442a.977.977 0 0 0 1.954 0v-1.589a3.913 3.913 0 0 0 2.93-3.782A3.91 3.91 0 0 0 12.5 6.274z" fill="currentColor"/></symbol><symbol viewBox="0 0 15 13" id="icon-visibility-hidden" xmlns="http://www.w3.org/2000/svg"><path d="M7.377 4.097l2.145 2.145.01-.113a2.044 2.044 0 0 0-2.043-2.042l-.112.01z"/><path d="M7.49 2.725a3.406 3.406 0 0 1 3.404 3.404c0 .44-.089.858-.242 1.243l1.992 1.991a8.085 8.085 0 0 0 2.338-3.234C13.801 3.14 10.897 1.023 7.49 1.023c-.954 0-1.866.17-2.714.477l1.471 1.467c.385-.15.803-.242 1.243-.242z"/><path fill-rule="evenodd" clip-rule="evenodd" d="M2.233 2.422L.681.87l.868-.868 12.068 12.071-.868.865-1.985-1.988-.29-.29a7.982 7.982 0 0 1-2.985.576c-3.404 0-6.311-2.118-7.489-5.107a8.064 8.064 0 0 1 2.543-3.397l-.31-.31zm3.265 3.261L4.446 4.632c-.225.456-.36.96-.36 1.497a3.405 3.405 0 0 0 3.403 3.405 3.35 3.35 0 0 0 1.495-.361L7.932 8.12A2.044 2.044 0 0 1 5.447 6.13c0-.154.02-.3.05-.447z"/></symbol><symbol viewBox="0 0 23 24" id="icon-wallet" xmlns="http://www.w3.org/2000/svg"><path fill-rule="evenodd" clip-rule="evenodd" d="M22.239 13.906h-.356v-3.2c0-.507-.252-.955-.637-1.228v-.435c0-.633-.514-1.147-1.146-1.147h-.266l1.015-1.49c.34-.498.211-1.181-.288-1.522L13.674.191a1.088 1.088 0 0 0-.821-.171 1.089 1.089 0 0 0-.702.459L6.206 9.202H4.552l.4-4.04a.12.12 0 0 1 .075-.1c.514-.194.96-.556 1.254-1.02a.119.119 0 0 1 .113-.053l2.594.257a.338.338 0 0 0 .067-.674L6.46 3.316a.792.792 0 0 0-.75.363 1.89 1.89 0 0 1-.922.75.79.79 0 0 0-.51.667l-.406 4.106h-.431l.631-6.39a.42.42 0 0 1 .458-.376l5.244.518a.339.339 0 0 0 .066-.673l-5.243-.518a1.097 1.097 0 0 0-1.198.983l-.51 5.15h-.866c-.632 0-1.146.514-1.146 1.147v.297C.36 9.578 0 10.1 0 10.706v11.532c0 .83.675 1.504 1.504 1.504H20.38c.829 0 1.503-.675 1.503-1.504v-3.2h.356c.42 0 .76-.341.76-.76v-3.611c0-.42-.34-.76-.76-.76zm-2.14-5.333c.26 0 .47.21.47.47v.172a1.507 1.507 0 0 0-.19-.012h-1.435l.43-.63h.726zM12.98.684a.417.417 0 0 0-.269.176L7.025 9.202h.52l4.252-6.24a.801.801 0 0 1 .767-.34c.4.056.816-.021 1.17-.216a.791.791 0 0 1 .831.04l3.57 2.434c.25.17.382.461.343.759-.053.4.028.815.226 1.167a.791.791 0 0 1-.037.839l-1.06 1.557h.519l2.165-3.176a.42.42 0 0 0-.11-.583L13.292.75a.416.416 0 0 0-.314-.066zm-.12 5.921a2.792 2.792 0 0 0-2.78 2.597H8.362l3.993-5.858a.12.12 0 0 1 .114-.052 2.572 2.572 0 0 0 1.59-.294.12.12 0 0 1 .124.008l3.57 2.433a.12.12 0 0 1 .053.112 2.571 2.571 0 0 0 .308 1.587.12.12 0 0 1-.007.126l-1.32 1.938H15.64a2.792 2.792 0 0 0-2.78-2.597zm-2.103 2.597h4.206a2.114 2.114 0 0 0-2.103-1.92c-1.1 0-2.006.845-2.103 1.92zm-9.202-.16c0-.259.21-.47.47-.47h.799l-.062.63H1.554v-.16zm-.05.837a.828.828 0 0 0-.827.827v.939h20.53v-.939a.828.828 0 0 0-.827-.827H1.504zm19.703 12.36a.828.828 0 0 1-.827.826H1.504a.828.828 0 0 1-.827-.827V21.3H2.5a.338.338 0 0 0 0-.677H.677v-8.302h20.53v1.585H17.99c-1.013 0-1.891.591-2.308 1.446l-.004.009a.451.451 0 0 0-.006.012l-.004.01c-.05.105-.093.215-.128.327v.001a2.569 2.569 0 0 0 2.45 3.327h3.217v1.585H4.667a.338.338 0 0 0 0 .677h16.54v.938zm1.032-3.878a.084.084 0 0 0 .084-.084v-3.61a.084.084 0 0 0-.084-.084H17.99a1.89 1.89 0 0 0-1.66 2.789c.32.589.944.99 1.66.99h4.249z"/><path fill-rule="evenodd" clip-rule="evenodd" d="M16.697 16.472c0-.757.616-1.372 1.373-1.372s1.372.615 1.372 1.372c0 .757-.615 1.373-1.372 1.373a1.374 1.374 0 0 1-1.373-1.373zm.677 0a.697.697 0 1 0 1.393-.001.697.697 0 0 0-1.393.001z"/></symbol></svg>