<svg width="132" height="24" viewBox="0 0 132 24" fill="none" xmlns="http://www.w3.org/2000/svg">
<path d="M94.5615 20.3919L97.4296 24H105.423L98.692 15.7635L94.5615 20.3919Z" fill="#182045"/>
<path d="M93.1478 10.2731L89.8104 6.06213H81.846L89.1433 14.8822L93.1478 10.2731Z" fill="#182045"/>
<path d="M81.2216 24.0001H88.9842L109.872 0.00012207H102.074L81.2216 24.0001Z" fill="#ED0606"/>
<path d="M128.12 0.0057373H123.209V7.71842H126.419V5.85741H128.121C130.586 5.85741 132 4.77906 132 2.89679C132 1.08602 130.549 0.0057373 128.12 0.0057373ZM126.419 2.33829H127.757C128.222 2.33829 128.779 2.44071 128.779 2.92771C128.779 3.08617 128.779 3.56737 127.757 3.56737H126.419V2.33829Z" fill="#ED0606"/>
<path d="M118.148 4.27293C118.148 5.24498 117.751 5.67787 116.857 5.67787C115.612 5.67787 115.443 4.96863 115.443 4.27293V0.00012207H112.113V4.09513C112.113 6.73302 113.729 8.1283 116.785 8.1283C119.857 8.1283 121.48 6.73302 121.48 4.09513V0.00012207H118.15V4.27293H118.148Z" fill="#ED0606"/>
<path d="M27.2532 14.0978L21.2378 6.06238H13.7039V24H20.0355V13.7789L21.581 15.9646L27.6546 24H35.2467V23.6676L28.886 16.4323L27.2532 14.0978Z" fill="#182045"/>
<path d="M28.8937 13.1644L35.2466 20.4113V6.06238H28.9151L28.8937 13.1644Z" fill="#182045"/>
<path d="M48.284 6.06238H38.2854V10.3275H41.4832L38.2854 13.5161V24H48.284C55.4746 24 59.9154 20.6336 59.9154 14.9326C59.9135 9.05972 55.302 6.06238 48.284 6.06238ZM47.7682 19.2093H45.2181V10.855H47.7682C51.3499 10.855 52.8683 12.2059 52.8683 15.0815C52.8664 17.8817 51.348 19.2093 47.7682 19.2093Z" fill="#182045"/>
<path d="M68.6865 19.2093V16.9483H77.1938V13.0407H68.6865V10.855H79.3716V6.06238H61.7538V10.3294H65.097L61.7538 13.661V24H80.058V19.2093H68.6865Z" fill="#182045"/>
<path d="M0.571533 10.3294H2.08218V13.6089V15.0312V19.735H0.571533V24H2.08218H9.01488H10.5255V19.735H9.01488V10.3294H10.5255V6.06238H0.571533V10.3294Z" fill="#182045"/>
</svg>
