<?xml version="1.0" standalone="no"?>
<!DOCTYPE svg PUBLIC "-//W3C//DTD SVG 1.1//EN" "http://www.w3.org/Graphics/SVG/1.1/DTD/svg11.dtd" >
<svg xmlns="http://www.w3.org/2000/svg">
<metadata>Generated by IcoMoon</metadata>
<defs>
<font id="icon" horiz-adv-x="1024">
<font-face units-per-em="1024" ascent="960" descent="-64" />
<missing-glyph horiz-adv-x="1024" />
<glyph unicode="&#x20;" horiz-adv-x="512" d="" />
<glyph unicode="&#xe900;" glyph-name="down" d="M1024 644l-512-512-512 512 120 120 392-392 392.004 392 119.996-120z" />
<glyph unicode="&#xe901;" glyph-name="android" d="M255.133 191.867v425.778h511.733v-425.778c0-11.995-3.998-21.991-11.994-29.988-7.996-7.989-17.991-11.988-29.984-11.988h-41.978v-149.924c0-17.324-6.663-31.98-19.99-43.975-11.994-13.325-27.319-19.992-45.976-19.992-17.324 0-31.983 6.666-43.977 19.992-11.994 11.995-17.991 26.651-17.991 43.975v149.924h-85.955v-149.924c0-17.324-6.663-31.98-19.99-43.975-11.994-13.325-26.653-19.992-43.977-19.992s-32.65 6.666-45.976 19.992c-11.994 11.995-17.991 26.651-17.991 43.975v149.924h-41.978c-11.995 0-22.656 3.998-31.983 11.988-7.996 7.997-11.995 17.993-11.995 29.988zM103.212 599.654c13.326 11.994 28.652 17.991 45.976 17.991s31.983-5.997 43.977-17.991c13.326-11.994 19.99-27.319 19.99-45.976v-297.845c0-17.324-6.663-32.649-19.99-45.974-11.994-11.995-26.653-17.993-43.977-17.993s-32.65 5.998-45.976 17.993c-11.994 13.325-17.991 28.651-17.991 45.974v297.845c0 18.657 5.997 33.982 17.991 45.976zM828.832 599.654c11.995 11.994 26.658 17.991 43.981 17.991 18.655 0 33.979-5.997 45.974-17.991 13.325-11.994 19.992-27.319 19.992-45.976v-297.845c0-17.324-6.666-32.649-19.992-45.974-11.995-11.995-27.32-17.993-45.974-17.993-17.324 0-31.987 5.998-43.981 17.993-11.988 13.325-17.985 28.651-17.985 45.974v297.845c0 18.657 5.998 33.982 17.985 45.976zM662.92 867.515c69.297-50.64 103.946-119.271 103.946-205.892h-511.733c0 85.289 35.315 153.919 105.945 205.892l-55.971 55.971c-10.661 9.328-11.327 18.657-1.999 27.985 10.661 10.661 21.322 11.327 31.983 1.999l63.967-63.967c34.649 18.657 71.963 27.985 111.942 27.985s77.959-9.328 113.942-27.985l61.968 63.967c10.661 9.328 20.656 8.662 29.984-1.999 10.661-9.328 10.661-18.657 0-27.985l-53.972-55.971zM427.043 745.578v43.978h-43.978v-43.978h43.978zM638.933 745.578v43.978h-41.978v-43.978h41.978z" />
<glyph unicode="&#xe902;" glyph-name="ios" d="M924.243 616.262c-33.648-11.217-61.696-37.659-84.131-79.324-22.435-40.062-33.652-80.125-33.652-120.188 0-49.678 12.82-96.15 38.46-139.418 25.64-41.665 60.091-68.107 103.363-79.324-12.825-43.267-34.452-88.138-64.9-134.61-28.848-44.872-58.494-78.52-88.942-100.961-25.64-17.624-57.69-26.436-96.15-26.436-25.64 0-55.287 6.408-88.94 19.224-28.845 14.425-53.684 21.636-74.516 21.636-16.024 0-48.075-9.616-96.15-28.848-28.846-8.008-49.678-12.012-62.498-12.012-38.46 0-77.722 16.024-117.785 48.072-57.691 54.489-102.561 119.389-134.611 194.705-32.050 75.318-48.075 153.841-48.075 235.569 0 84.934 24.038 159.45 72.113 223.55 49.678 65.703 112.176 98.554 187.494 98.554 41.665 0 80.125-8.813 115.381-26.441 27.243-17.628 54.485-26.442 81.727-26.442 25.64 0 50.48 4.808 74.517 14.423 62.498 25.64 104.163 38.459 124.995 38.459 56.089 0 104.964-18.429 146.629-55.286 19.226-19.231 34.455-40.864 45.67-64.902zM505.989 729.238c0 51.281 20.032 101.76 60.094 151.438 40.062 43.267 88.939 69.709 146.629 79.324 0-60.895-19.231-114.579-57.691-161.053-43.267-46.472-92.946-69.709-149.033-69.709z" />
<glyph unicode="&#xe903;" glyph-name="lock" d="M805.716 617.142c25.905 0 48-9.904 66.286-29.713 19.809-18.286 29.713-40.381 29.713-66.286v-489.148c0-25.903-9.904-47.998-29.713-66.285-18.286-19.809-40.381-29.71-66.286-29.71h-585.145c-27.429 0-51.048 9.901-70.857 29.71-18.286 18.288-27.429 40.383-27.429 66.285v489.148c0 25.905 9.143 48 27.429 66.286 19.809 19.809 43.429 29.713 70.857 29.713h48v98.286c0 67.047 23.618 124.191 70.857 171.429 48.762 48.762 106.668 73.143 173.716 73.143s124.19-24.381 171.429-73.143c47.238-47.238 70.857-104.382 70.857-171.429v-98.286h50.287zM442.286 205.712c19.81-18.288 42.668-27.432 68.572-27.432 27.429 0 50.286 9.144 68.572 27.432 19.809 19.809 29.713 43.425 29.713 70.857 0 27.429-9.904 50.286-29.713 68.572-18.286 19.809-41.143 29.714-68.572 29.714-25.905 0-48.762-9.905-68.572-29.714-18.286-18.286-27.429-41.143-27.429-68.572 0-27.432 9.143-51.048 27.429-70.857zM664.002 617.142v98.286c0 41.143-15.238 76.19-45.714 105.143-28.952 30.476-64.763 45.713-107.429 45.713-41.143 0-76.19-15.238-105.143-45.713-28.952-28.953-43.429-64.001-43.429-105.143v-98.286h301.715z" />
<glyph unicode="&#xe904;" glyph-name="vk" d="M1018.561 215.788c-1.241 2.635-2.394 4.822-3.473 6.57-17.76 31.556-51.73 70.266-101.83 116.16l-2.132 2.105h-0.542c-22.741 21.368-37.135 35.751-43.179 43.112-11.034 14.012-13.501 28.208-7.47 42.577 4.264 10.854 20.258 33.796 47.994 68.854 14.587 18.575 26.125 33.463 34.657 44.68 61.493 80.589 88.151 132.108 79.979 154.533l-3.181 5.242c-2.12 3.149-7.629 6.033-16.528 8.668-8.885 2.634-20.257 3.054-34.129 1.313l-153.537-1.052c-2.484 0.866-6.030 0.792-10.666-0.261s-6.931-1.583-6.931-1.583l-2.674-1.313-2.132-1.583c-1.78-1.052-3.73-2.895-5.862-5.503s-3.907-5.688-5.319-9.199c-16.718-42.393-35.729-81.813-57.046-118.259-13.15-21.728-25.224-40.555-36.271-56.506-11.020-15.94-20.258-27.689-27.708-35.221-7.47-7.532-14.207-13.566-20.258-18.128-6.052-4.56-10.665-6.479-13.853-5.778s-6.213 1.395-9.078 2.104c-4.968 3.149-8.964 7.459-11.99 12.871-3.026 5.427-5.059 12.258-6.139 20.504-1.063 8.249-1.675 15.335-1.864 21.283-0.163 5.95-0.089 14.384 0.266 25.24 0.377 10.856 0.542 18.229 0.542 22.075 0 13.305 0.266 27.775 0.78 43.358 0.544 15.595 0.97 27.95 1.351 37.063 0.352 9.116 0.523 18.738 0.523 28.927s-0.629 18.126-1.866 23.918c-1.236 5.778-3.102 11.377-5.584 16.831-2.484 5.427-6.139 9.63-10.927 12.615-4.805 2.98-10.752 5.344-17.851 7.109-18.848 4.195-42.837 6.48-71.986 6.824-66.109 0.702-108.593-3.51-127.429-12.624-7.47-3.845-14.207-9.115-20.258-15.752-6.403-7.719-7.288-11.934-2.674-12.615 21.33-3.149 36.433-10.675 45.319-22.592l3.187-6.318c2.484-4.553 4.987-12.615 7.47-24.176s4.086-24.354 4.804-38.361c1.78-25.584 1.78-47.472 0-65.702-1.778-18.229-3.453-32.42-5.059-42.577s-3.996-18.387-7.184-24.709-5.347-10.167-6.404-11.564c-1.063-1.397-1.963-2.285-2.674-2.635-4.615-1.745-9.43-2.635-14.396-2.635-4.987 0-11.020 2.449-18.126 7.361-7.097 4.914-14.472 11.646-22.122 20.231-7.64 8.585-16.261 20.577-25.867 36.012-9.595 15.409-19.554 33.639-29.864 54.661l-8.534 15.248c-5.32 9.811-12.619 24.102-21.847 42.837-9.239 18.738-17.421 36.888-24.519 54.401-2.836 7.361-7.109 12.959-12.798 16.804l-2.675 1.583c-1.778 1.396-4.614 2.895-8.534 4.478s-7.994 2.719-12.265 3.401l-146.084-1.052c-14.924 0-25.063-3.331-30.381-9.99l-2.132-3.149c-1.063-1.769-1.603-4.562-1.603-8.407s1.063-8.585 3.187-14.199c21.33-49.413 44.516-97.078 69.572-142.97s46.834-82.88 65.301-110.903c18.486-28.034 37.327-54.489 56.506-79.367 19.202-24.894 31.894-40.836 38.109-47.827 6.214-7.011 11.106-12.258 14.664-15.781l13.338-12.615c8.536-8.407 21.066-18.486 37.593-30.224s34.831-23.311 54.92-34.699c20.095-11.378 43.454-20.678 70.115-27.847 26.651-7.182 52.608-10.064 77.831-8.695h61.306c12.44 1.063 21.845 4.914 28.25 11.562l2.132 2.635c1.421 2.105 2.759 5.345 3.995 9.721 1.247 4.376 1.866 9.199 1.866 14.454-0.377 15.064 0.809 28.639 3.453 40.723s5.7 21.188 9.078 27.344c3.378 6.137 7.214 11.305 11.467 15.5s7.297 6.751 9.078 7.616c1.778 0.881 3.177 1.47 4.262 1.844 8.536 2.792 18.56 0.089 30.143-8.155 11.561-8.225 22.389-18.414 32.527-30.482 10.123-12.094 22.304-25.659 36.509-40.723 14.234-15.073 26.661-26.264 37.317-33.639l10.666-6.318c7.109-4.217 16.364-8.062 27.735-11.562 11.358-3.502 21.303-4.376 29.839-2.635l136.491 2.104c13.505 0 23.996 2.215 31.447 6.57 7.47 4.376 11.898 9.199 13.337 14.454 1.421 5.242 1.493 11.215 0.273 17.874-1.241 6.679-2.503 11.322-3.728 13.95z" />
<glyph unicode="&#xe905;" glyph-name="facebook" d="M748.688 959.789l-122.854 0.211c-137.925 0-227.082-98.854-227.082-252.031v-116.217h-123.444c-10.639 0-19.311-9.372-19.311-20.877v-168.306c0-11.504 8.667-20.877 19.311-20.877h123.444v-424.809c0-11.508 8.667-20.883 19.31-20.883h161.078c10.639 0 19.31 9.379 19.31 20.883v424.809h144.429c10.639 0 19.31 9.372 19.31 20.877l0.101 168.306c0 5.541-2.068 10.867-5.617 14.805s-8.572 6.18-13.693 6.18h-144.526v98.534c0 47.296 10.442 71.369 67.483 71.369h82.755c10.639 0 19.311 9.372 19.311 20.877v156.269c0 11.506-8.668 20.877-19.311 20.877z" />
<glyph unicode="&#xe906;" glyph-name="twitter" d="M1023.995 769.819c-38.083-16.929-78.661-28.16-120.96-33.607 43.517 26.329 76.745 67.727 92.365 117.611-40.574-24.532-85.378-41.838-133.117-51.513-38.542 41.6-93.439 67.339-153.359 67.339-116.221 0-209.794-95.624-209.794-212.832 0-16.866 1.394-33.080 4.863-48.528-174.523 8.633-328.967 93.415-432.7 222.558-18.119-31.849-28.744-68.317-28.744-107.559 0-73.688 37.444-139.019 93.241-176.829-33.718 0.652-66.818 10.58-94.842 26.214 0-0.652 0-1.504 0-2.333 0-103.404 72.763-189.296 168.205-209.081-17.081-4.743-35.718-7.013-55.043-7.013-13.44 0-27.003 0.762-39.741 3.626 27.201-84.268 104.382-146.222 196.159-148.229-71.422-56.635-162.119-90.755-260.285-90.755-17.217 0-33.718 0.762-50.243 2.923 92.997-60.75 203.206-95.46 322.043-95.46 386.306 0 597.5 324.344 597.5 605.493 0 9.406-0.327 18.485-0.762 27.508 41.667 29.961 76.679 67.382 105.219 110.458z" />
<glyph unicode="&#xe907;" glyph-name="instagram" d="M741.443 959.973h-458.882c-155.786 0-282.561-126.774-282.561-282.561v-458.821c0-155.85 126.775-282.563 282.561-282.563h458.821c155.845 0 282.618 126.773 282.618 282.563v458.821c0 155.786-126.773 282.561-282.557 282.561zM933.155 218.526c0-105.757-86.011-191.708-191.773-191.708h-458.821c-105.697 0-191.708 86.011-191.708 191.708v458.882c0 105.697 86.011 191.708 191.708 191.708h458.821c105.693 0 191.773-86.010 191.773-191.708v-458.882zM512.028 711.806c-145.489 0-263.847-118.353-263.847-263.847s118.353-263.847 263.847-263.847c145.489 0 263.847 118.353 263.847 263.847s-118.353 263.847-263.847 263.847zM512.028 274.97c-95.4 0-172.989 77.589-172.989 172.989s77.589 172.989 172.989 172.989c95.4 0 172.989-77.589 172.989-172.989s-77.589-172.989-172.989-172.989zM786.915 788.82c-17.496 0-34.692-7.085-47.044-19.498-12.413-12.351-19.558-29.548-19.558-47.104 0-17.496 7.145-34.693 19.558-47.105 12.351-12.351 29.547-19.498 47.044-19.498 17.557 0 34.693 7.146 47.108 19.498 12.405 12.412 19.495 29.609 19.495 47.105 0 17.556-7.091 34.753-19.495 47.104-12.355 12.412-29.551 19.498-47.108 19.498z" />
<glyph unicode="&#xe908;" glyph-name="tv" d="M858.904 692.259h-693.806c-25.167-0.028-49.295-10.349-67.091-28.696s-27.806-43.224-27.833-69.172v-427.066c0.027-25.947 10.037-50.824 27.833-69.171s41.924-28.668 67.091-28.696h693.806c25.166 0.028 49.294 10.348 67.088 28.696 17.799 18.347 27.808 43.224 27.835 69.171v427.066c-0.028 25.948-10.037 50.824-27.835 69.172-17.794 18.348-41.922 28.669-67.088 28.696zM867.532 185.118c0-7.078-2.726-13.869-7.581-18.873s-11.441-7.818-18.305-7.818h-659.289c-6.866 0-13.45 2.814-18.305 7.818s-7.583 11.795-7.583 18.873v391.477c0 7.079 2.727 13.868 7.583 18.874s11.44 7.818 18.305 7.818h659.289c6.864 0 13.45-2.813 18.305-7.818s7.581-11.795 7.581-18.874v-391.477zM335.574 24.972h352.854c24.569 0 44.486-19.917 44.486-44.486v0c0-24.569-19.917-44.486-44.486-44.486h-352.854c-24.569 0-44.486 19.917-44.486 44.486v0c0 24.569 19.917 44.486 44.486 44.486zM430.642 757.599c-11.683-7.732-22.218-17.093-31.29-27.804h225.295c-9.065 10.715-19.603 20.077-31.291 27.804l79.962 164.077c1.633 3.088 2.632 6.475 2.94 9.96s-0.088 6.996-1.158 10.325c-1.070 3.328-2.795 6.406-5.069 9.049s-5.055 4.798-8.18 6.336c-3.12 1.538-6.516 2.427-9.985 2.616s-6.939-0.329-10.209-1.52c-3.264-1.191-6.26-3.033-8.809-5.414-2.544-2.381-4.585-5.255-6.004-8.447l-81.12-166.509c-22.145 5.138-45.162 5.138-67.308 0l-81.117 166.509c-1.461 3.133-3.525 5.942-6.075 8.263s-5.534 4.108-8.777 5.256c-3.242 1.148-6.681 1.634-10.112 1.43s-6.789-1.094-9.875-2.619c-3.087-1.524-5.84-3.652-8.1-6.259s-3.983-5.641-5.067-8.927c-1.084-3.284-1.507-6.754-1.244-10.205s1.204-6.815 2.772-9.895l79.822-164.024z" />
<glyph unicode="&#xe909;" glyph-name="coupon" d="M206.832 241.97v-273.75c0-17.792 14.425-32.22 32.221-32.22h163.326c17.796 0 32.221 14.428 32.221 32.22 0 42.68 34.722 77.399 77.404 77.399 42.68 0 77.394-34.719 77.394-77.399 0-17.792 14.428-32.22 32.225-32.22h163.328c17.792 0 32.22 14.428 32.22 32.22v273.75h-610.337zM434.598 927.779c0 17.794-14.425 32.221-32.221 32.221h-163.326c-17.796 0-32.221-14.427-32.221-32.221v-621.369h610.337v621.369c0 17.794-14.423 32.221-32.22 32.221h-163.328c-17.797 0-32.22-14.427-32.22-32.221 0-42.678-34.719-77.4-77.399-77.4-42.682 0-77.404 34.722-77.404 77.4z" />
<glyph unicode="&#xe90a;" glyph-name="user" d="M512 459.199c113.852 0 206.155 112.108 206.155 250.399 0 138.295-30.305 250.402-206.155 250.402s-206.159-112.108-206.159-250.402c0-138.291 92.303-250.399 206.159-250.399zM122.614 281.664c-0.035 8.433-0.070 2.376 0 0v0zM901.369 275.080c0.108 2.309 0.036 16.015 0 0v0zM900.929 86.976c-3.82 240.91-35.282 309.554-276.044 353.008 0 0-33.894-43.187-112.888-43.187s-112.892 43.187-112.892 43.187c-238.137-42.977-271.514-110.607-275.903-345.184-0.36-19.154-0.527-20.157-0.591-17.935 0.015-4.168 0.032-11.873 0.032-25.308 0 0 57.321-115.558 389.353-115.558 332.028 0 389.352 115.558 389.352 115.558 0 8.632 0.005 14.633 0.015 18.719-0.061-1.372-0.195 1.29-0.435 16.701z" />
<glyph unicode="&#xe90b;" glyph-name="list" d="M896.045 800.056h-639.778c-35.334 0-63.977-28.644-63.977-63.977s28.644-63.977 63.977-63.977h639.778c35.333 0 63.98 28.644 63.98 63.977s-28.646 63.977-63.98 63.977zM128.313 736.078c-0.072 16.94-6.859 33.16-18.873 45.104-24.953 24.805-65.255 24.805-90.208 0-12.016-11.944-18.803-28.164-18.873-45.104-0.478-4.145-0.478-8.331 0-12.475 0.724-4.169 1.903-8.245 3.519-12.156 1.717-3.789 3.751-7.428 6.078-10.876 2.297-3.587 4.978-6.911 7.997-9.916 2.911-2.899 6.128-5.474 9.597-7.677 3.369-2.454 7.022-4.495 10.876-6.078 4.24-2.2 8.761-3.815 13.435-4.798 4.145-0.464 8.331-0.464 12.475 0 16.894-0.014 33.108 6.655 45.104 18.553 3.019 3.005 5.7 6.33 7.997 9.916 2.327 3.449 4.36 7.088 6.077 10.876 2.041 3.863 3.651 7.939 4.798 12.156 0.478 4.144 0.478 8.331 0 12.475zM128.309 448.181c0.476 4.144 0.476 8.331 0 12.475-1.105 4.129-2.717 8.103-4.798 11.836-1.647 3.924-3.684 7.675-6.077 11.196-2.217 3.547-4.909 6.776-7.997 9.597-24.953 24.805-65.255 24.805-90.208 0-12.016-11.944-18.803-28.164-18.873-45.104 0.124-8.431 1.749-16.772 4.798-24.631 1.603-3.784 3.531-7.424 5.758-10.875 2.433-3.476 5.22-6.697 8.317-9.6 2.827-3.082 6.054-5.77 9.597-7.997 3.369-2.452 7.020-4.495 10.876-6.077 3.901-1.638 7.981-2.821 12.156-3.517 4.092-0.916 8.281-1.347 12.475-1.28 4.145-0.476 8.331-0.476 12.475 0 4.071 0.696 8.046 1.879 11.836 3.517 3.961 1.572 7.719 3.615 11.196 6.077 3.543 2.227 6.77 4.915 9.596 7.997 3.083 2.826 5.774 6.057 7.997 9.6 2.459 3.364 4.5 7.014 6.077 10.875 2.185 4.244 3.799 8.765 4.798 13.435 0.492 4.142 0.492 8.33 0 12.476zM128.308 160.278c0.474 4.147 0.474 8.33 0 12.477-1.105 4.229-2.717 8.31-4.798 12.155-1.717 3.789-3.751 7.429-6.078 10.875-2.223 3.543-4.914 6.769-7.997 9.6-24.953 24.801-65.255 24.801-90.208 0-3.083-2.831-5.774-6.057-7.997-9.6-2.327-3.446-4.36-7.086-6.078-10.875-1.659-3.896-2.841-7.977-3.519-12.155-0.902-4.096-1.33-8.284-1.28-12.477 0.072-16.937 6.86-33.157 18.873-45.102 2.827-3.082 6.054-5.775 9.597-7.997 3.369-2.458 7.020-4.495 10.876-6.077 3.901-1.644 7.981-2.826 12.156-3.517 4.092-0.922 8.281-1.352 12.475-1.28 4.145-0.481 8.331-0.481 12.476 0 4.070 0.696 8.045 1.879 11.836 3.517 3.96 1.572 7.719 3.61 11.196 6.077 3.543 2.222 6.77 4.915 9.596 7.997 3.083 2.826 5.774 6.052 7.997 9.595 2.461 3.364 4.503 7.020 6.078 10.875 2.183 4.25 3.796 8.765 4.798 13.44 0.492 4.142 0.492 8.33 0 12.472zM960.025 512.156h-703.758c-35.334 0-63.977-28.644-63.977-63.977s28.644-63.975 63.977-63.975h703.758c35.333 0 63.974 28.641 63.974 63.975s-28.641 63.977-63.974 63.977zM672.121 224.258h-415.854c-35.334 0-63.977-28.646-63.977-63.98s28.644-63.98 63.977-63.98h415.854c35.338 0 63.98 28.646 63.98 63.98s-28.641 63.98-63.98 63.98z" />
<glyph unicode="&#xe90c;" glyph-name="page" d="M686.259 90.501h-78.1c-17.152 0-31.053 13.906-31.053 31.058 0 17.147 13.906 31.053 31.053 31.053h78.1c17.152 0 31.053-13.906 31.053-31.053 0-17.152-13.901-31.058-31.053-31.058zM426.525 894.086h170.943c3.732 0 6.917 2.543 7.747 6.18 0.23 0.975 0.123 0.526 14.776 59.734h-213.131l11.982-59.988c0.916-3.502 4.037-5.926 7.683-5.926zM368.793 651.863h286.408v-96.635h-286.408v96.635zM368.793 383.488h91.044v-230.871h-91.044v230.871zM723.619 960h-39.644l-18.273-73.838c-7.414-31.923-35.43-54.187-68.234-54.187h-170.943c-34.477 0-62.225 24.48-68.479 55.316l-14.523 72.709h-43.147c-56.080 0-101.704-45.624-101.704-101.704v-820.592c0-56.079 45.624-101.704 101.704-101.704h423.244c56.084 0 101.709 45.624 101.709 101.704v820.592c-0.005 56.080-45.629 101.704-101.709 101.704zM521.948 121.554c0-17.147-13.906-31.053-31.055-31.053h-153.156c-17.151 0-31.055 13.906-31.055 31.053v292.987c0 17.152 13.905 31.053 31.055 31.053h153.156c17.154 0 31.055-13.901 31.055-31.053v-292.987zM686.259 236.995h-78.1c-17.152 0-31.053 13.906-31.053 31.053 0 17.152 13.901 31.058 31.053 31.058h78.1c17.152 0 31.053-13.906 31.053-31.058 0-17.147-13.901-31.053-31.053-31.053zM686.259 383.483h-78.1c-17.152 0-31.053 13.906-31.053 31.058s13.901 31.053 31.053 31.053h78.1c17.152 0 31.053-13.901 31.053-31.053s-13.901-31.058-31.053-31.058zM717.317 524.172c0-17.152-13.906-31.055-31.058-31.055h-348.524c-17.152 0-31.055 13.905-31.055 31.055v158.747c0 17.152 13.905 31.055 31.055 31.055h348.524c17.152 0 31.053-13.905 31.053-31.055l0.005-158.747z" />
<glyph unicode="&#xe90d;" glyph-name="football" d="M511.992 874.673c-235.249 0-426.665-191.417-426.665-426.665 0-235.252 191.417-426.669 426.665-426.669 235.252 0 426.669 191.417 426.669 426.669 0 235.249-191.417 426.665-426.669 426.665zM539.093 736.056l109.702 58.984c60.321-23.899 113.416-63.041 154.080-113.6l-26.132-120.634-83.684-41.015-153.966 112.166v104.1zM376.094 795.373l109.716-59.2v-104.216l-153.816-112.166-84.166 41.066-26.133 121.383c40.802 50.444 94.006 89.427 154.4 113.133zM204.26 237.040c-35.741 51.873-57.675 111.998-63.733 174.698l90.3 98.083 82.333-40.267 62.034-176.167-52.433-62.815-118.5 6.467zM607.094 87.339c-68.754-18.625-141.446-16.813-209.184 5.218l-33.55 104.432 53.498 64.351h188.483l52.535-62.184-51.783-111.817zM700.428 232.342l-51.586 61.066 62.885 176.116 82.034 40.149 89.75-98.016c-5.333-54.126-22.544-106.405-50.4-153.116l-132.683-26.199z" />
<glyph unicode="&#xe90e;" glyph-name="hockey" d="M511.479 406.576c-235.597 0-426.665 77.67-426.665 171.39v-278.059h1.295c0-101.486 190.55-183.816 425.371-183.816 234.823 0 425.374 82.33 425.374 183.816h2.332v278.059c0-94.755-192.106-171.39-427.705-171.39zM511.479 437.127c235.642 0 426.669 76.733 426.669 171.39s-191.027 171.392-426.669 171.392c-235.64 0-426.665-76.735-426.665-171.392s191.025-171.39 426.665-171.39z" />
<glyph unicode="&#xe90f;" glyph-name="tennis" d="M472.072 872.999c-99.003-9.241-191.669-52.78-261.981-123.091s-113.85-162.977-123.091-261.981c117.155-16.872 225.392-72.164 307.725-157.2 85.232-82.274 140.556-190.649 157.2-307.933 99.005 9.24 191.669 52.779 261.983 123.089 70.309 70.313 113.849 162.977 123.089 261.983-117.197 16.735-225.477 72.046-307.724 157.2-85.232 82.272-140.556 190.646-157.2 307.933zM938.673 460.827c-3.147 108.764-47.762 212.208-124.7 289.148s-180.385 121.551-289.146 124.698c16.821-103.348 66.714-198.451 142.186-271.032 72.594-75.907 167.975-126.048 271.659-142.814zM85.327 434.959c3.197-108.69 47.802-212.055 124.692-288.941 76.89-76.891 180.253-121.498 288.945-124.692-16.605 103.692-66.69 199.097-142.605 271.655-72.573 75.445-167.69 125.271-271.032 141.978z" />
<glyph unicode="&#xe910;" glyph-name="esports" d="M1024 508.018c0.004 71.457-28.243 140.019-78.58 190.74-50.334 50.721-118.678 79.488-190.137 80.030h-486.566c-71.456-0.542-139.802-29.309-190.138-80.030s-78.581-119.283-78.579-190.74c0-3.6 0-6.94 0-10.535s0-6.936 0-10.531v-202.953c-0.078-40.684 14.748-79.994 41.677-110.494 26.929-30.503 64.096-50.085 104.48-55.048 40.383-4.966 81.187 5.029 114.702 28.101 33.515 23.068 57.421 57.616 67.201 97.111 39.314 8.55 76.227 25.761 108.045 50.385 31.819 24.619 57.75 56.029 75.894 91.936 18.176-35.887 44.115-67.277 75.93-91.892 31.815-24.619 68.71-41.842 108.012-50.428 9.779-39.495 33.686-74.043 67.198-97.111 33.516-23.072 74.319-33.067 114.704-28.101 40.385 4.962 77.552 24.544 104.48 55.048 26.927 30.499 41.756 69.809 41.677 110.494v202.953c0 3.596 0 7.192 0 10.531s0 7.196 0 10.535zM425.941 464.088h-111.239v-111.238h-88.117v111.238h-110.98v88.115h110.98v110.98h88.117v-110.98h111.239v-88.115zM753.487 695.295c12.497 0 24.718-3.706 35.107-10.651 10.394-6.944 18.495-16.814 23.276-28.362 4.785-11.548 6.038-24.255 3.6-36.513-2.442-12.259-8.46-23.52-17.298-32.358s-20.098-14.857-32.358-17.296c-12.26-2.439-24.966-1.187-36.513 3.596s-21.417 12.883-28.361 23.276c-6.944 10.392-10.65 22.611-10.65 35.11 0.134 16.672 6.853 32.615 18.688 44.355 11.839 11.741 27.833 18.329 44.509 18.328v0.514zM629.918 445.333c-12.501 0.102-24.686 3.907-35.021 10.937-10.338 7.026-18.357 16.963-23.044 28.55-4.691 11.587-5.837 24.3-3.3 36.541 2.536 12.237 8.649 23.45 17.558 32.217 8.909 8.763 20.22 14.692 32.496 17.031 12.28 2.339 24.974 0.984 36.486-3.892 11.508-4.875 21.311-13.056 28.172-23.504 6.857-10.449 10.464-22.697 10.366-35.194 0-8.346-1.654-16.605-4.86-24.304-3.21-7.704-7.908-14.69-13.832-20.567s-12.954-10.52-20.677-13.666c-7.727-3.143-16.002-4.73-24.344-4.663v0.516zM753.487 321.764c-12.501 0-24.718 3.706-35.111 10.65s-18.495 16.817-23.276 28.365c-4.785 11.548-6.034 24.253-3.596 36.513 2.438 12.256 8.456 23.517 17.294 32.358 8.838 8.838 20.102 14.856 32.358 17.294 12.26 2.438 24.966 1.185 36.513-3.596 11.548-4.785 21.417-12.883 28.365-23.276 6.944-10.394 10.65-22.611 10.65-35.111 0.067-8.342-1.516-16.616-4.663-24.34-3.147-7.727-7.79-14.757-13.666-20.681-5.872-5.92-12.863-10.622-20.563-13.832-7.704-3.206-15.963-4.856-24.304-4.856v0.512zM876.796 445.333c-12.497 0-24.718 3.706-35.107 10.65-10.394 6.944-18.495 16.813-23.276 28.361-4.785 11.548-6.038 24.257-3.6 36.513 2.442 12.26 8.46 23.52 17.298 32.358s20.098 14.859 32.358 17.297c12.256 2.438 24.966 1.187 36.513-3.597s21.417-12.882 28.361-23.275c6.944-10.394 10.65-22.611 10.65-35.111 0.035-8.334-1.571-16.593-4.73-24.304s-7.802-14.722-13.67-20.641c-5.868-5.916-12.847-10.618-20.531-13.836-7.688-3.222-15.931-4.896-24.265-4.931v0.516z" />
<glyph unicode="&#xe911;" glyph-name="mma" d="M324.878 175.878v-148.002c0.032-24.346 9.713-47.689 26.925-64.913 17.211-17.22 40.547-26.918 64.895-26.965h357.279c24.337 0.051 47.659 9.745 64.862 26.953 17.207 17.207 26.893 40.533 26.94 64.866v148.002l-540.9 0.060zM715.319 61.237c0-6.822-2.709-13.363-7.535-18.189-4.821-4.821-11.366-7.531-18.185-7.531h-188.463c-3.375 0-6.72 0.666-9.839 1.958s-5.952 3.187-8.337 5.577c-2.389 2.389-4.279 5.222-5.572 8.341-1.289 3.123-1.954 6.468-1.95 9.843v14.921c0 6.814 2.709 13.35 7.526 18.172 4.821 4.821 11.358 7.526 18.172 7.526h188.463c3.375 0.004 6.72-0.657 9.839-1.95 3.123-1.289 5.956-3.183 8.346-5.568 2.389-2.389 4.284-5.222 5.577-8.341s1.958-6.464 1.958-9.839v-14.921zM820.5 931.625c-146.867 37.245-300.634 37.836-447.781 1.72l-8.54-2.1c-35.184-8.5-66.131-29.384-87.179-58.831s-30.789-65.488-27.441-101.529c0-0.72 0.14-1.42 0.24-2.14l34.6-251.038-16.64 15.878c-8.245 7.784-18 13.793-28.66 17.655s-22 5.497-33.318 4.801c-11.317-0.695-22.372-3.706-32.479-8.845s-19.053-12.297-26.283-21.034l-38.66-46.758c-7.226-8.742-12.579-18.88-15.727-29.777s-4.025-22.327-2.575-33.574c1.449-11.251 5.194-22.084 11.002-31.829s13.555-18.193 22.761-24.819l185.18-132.42h557.201l67.618 543.021c0 0.54 0.141 1.080 0.179 1.64 3.268 35.82-6.379 71.627-27.187 100.962-20.813 29.335-51.426 50.267-86.31 59.018z" />
<glyph unicode="&#xe912;" glyph-name="volleyball" d="M370.995 635.956c64.957 56.105 144.45 92.701 229.314 105.564 84.86 12.864 171.631 1.471 250.295-32.863-59.908 77.443-144.585 131.977-239.872 154.491s-195.413 11.641-283.647-30.799v-15.025c0.11-63.075 15.157-125.228 43.91-181.368zM400.627 586.941c30.163-42.74 68.457-79.117 112.685-107.051 59.883 31.735 126.093 49.702 193.801 52.587l23.74 6.554 1.728-6.234c71.872-1.114 142.468-19.127 206.084-52.587-3.964 52.548-17.681 103.903-40.452 151.43l-5.333-9.203-24.418 14.142c-73.165 42.406-157.922 60.452-242.018 51.529s-163.174-44.352-225.815-101.167zM689.465 474.523c-52.079-4.757-102.716-19.708-149.026-44.006-2.445-67.712-19.972-134.025-51.311-194.099l-6.199-23.834-6.272 1.634c-36.907-61.709-87.816-113.869-148.613-152.256 47.519-22.797 98.864-36.553 151.412-40.567l-5.257 9.143 24.32 14.012c73.306 42.163 131.311 106.539 165.636 183.829 34.321 77.286 43.187 163.486 25.31 246.144zM925.796 422.964c-54.699 31.437-116.066 49.459-179.076 52.591 16.102-84.301 8.047-171.435-23.245-251.354-31.292-79.915-84.535-149.359-153.6-200.311 198.537 26.667 353.911 189.687 368.785 391.676l-12.864 7.398zM170.794 660.92c-0.141-84.562 26.607-166.979 76.38-235.344s119.99-119.134 200.508-144.973c21.935 47.471 34.308 98.79 36.416 151.040-57.412 36.002-106.060 84.369-142.397 141.57l-17.56 17.279 4.526 4.62c-34.967 62.782-54.68 132.907-57.545 204.713-43.41-29.839-80.969-67.398-110.808-110.808h10.537l-0.057-28.096zM420.051 230.474c-81.085 28.211-152.541 78.775-206.117 145.86s-87.089 147.955-96.67 233.271c-37.138-90.628-42.034-191.262-13.868-285.069s87.685-175.1 168.605-230.281l12.865 7.509c54.595 31.625 100.921 75.729 135.185 128.708z" />
<glyph unicode="&#xe913;" glyph-name="baseball" d="M568.745 67.033l-37.201-1.024c-8.363 0-15.168 6.724-15.287 15.091-0.115 8.363 6.507 15.27 14.869 15.488l24.841 0.683c-5.218 11.409-10.59 22.716-16.41 33.754l-36.681-4.864c-0.67-0.085-1.357-0.137-2.022-0.137-8.047 0.017-14.72 6.255-15.241 14.302-0.516 8.030 5.269 15.104 13.248 16.158l24.469 3.243c-6.404 10.807-13.163 21.376-20.139 31.782l-35.524-8.58c-8.213-1.975-16.474 3.076-18.449 11.29s3.076 16.474 11.29 18.449l23.684 5.717c-7.475 10.057-15.168 19.908-23.181 29.508l-34.291-12.177c-7.96-2.829-16.708 1.335-19.535 9.284-2.827 7.962 1.321 16.708 9.283 19.533l23.082 8.196c-8.495 9.216-17.228 18.18-26.193 26.914l-32.9-15.723c-7.627-3.648-16.76-0.418-20.39 7.206-3.646 7.629-0.418 16.759 7.209 20.39l21.777 10.419c-9.383 8.265-18.984 16.26-28.802 24.021l-30.81-18.935c-4.65-2.91-10.521-3.093-15.355-0.499-4.834 2.607-7.911 7.59-8.045 13.077s2.676 10.637 7.376 13.466l20.573 12.646c-10.153 7.258-20.457 14.298-31.011 21.005l-28.819-22.161c-4.332-3.328-10.103-4.096-15.154-2.005s-8.597 6.707-9.316 12.126c-0.719 5.419 1.505 10.803 5.837 14.131l19.419 14.938c-10.872 6.191-21.995 11.942-33.201 17.527l-26.444-25.139c-3.947-3.78-9.634-5.167-14.886-3.61-5.252 1.536-9.266 5.769-10.554 11.106-1.271 5.316 0.385 10.923 4.366 14.686l17.663 16.789c-11.424 5.005-23.015 9.702-34.74 14.067l-23.718-27.831c-3.529-4.198-9.049-6.187-14.451-5.218s-9.868 4.783-11.692 9.954c-1.823 5.184-0.736 10.935 2.86 15.087l16.024 18.799c-20.088 6.387-40.595 11.725-61.385 16.209-13.414-203.477 119.040-387.998 316.125-440.367 13.531-3.814 27.296-6.793 41.197-8.917 6.839-1.237 13.346-2.005 19.87-2.795 2.057-0.35 4.147-0.55 6.221-0.567l2.027-0.132c8.631-1.105 17.327-1.69 26.027-1.775h0.35l0.333 0.085 2.176-0.085c28.198-1.071 56.435 0.836 84.233 5.653-2.274 7.061-4.702 14.268-7.309 21.662-2.24 6.14-4.885 12.058-7.292 18.099zM939.949 459.835l-0.030 0.969 0.081 0.973-0.286 1.404 0.085 1.22c-0.149 8.546-0.751 17.079-1.788 25.557l-0.119 1.839c-0.017 1.792-0.183 3.58-0.499 5.355-0.755 7.108-1.643 13.632-2.795 19.887-2.21 14.084-5.286 28.017-9.199 41.715-19.285 72.224-57.37 138.058-110.396 190.746-104.418 104.689-255.676 147.742-399.586 113.754 7.593-20.958 16.026-41.498 25.574-61.402l16.427 18.516c5.619 6.223 15.219 6.741 21.491 1.188s6.891-15.154 1.387-21.477l-24.252-27.347c5.973-11.006 12.228-21.811 18.769-32.449l14.182 19.837c3.162 4.483 8.478 6.908 13.948 6.389 5.453-0.518 10.223-3.93 12.48-8.915 2.257-5.001 1.673-10.822-1.54-15.254l-21.227-29.672c7.095-10.337 14.353-20.54 21.982-30.458l12.075 21.292c4.164 7.343 13.5 9.919 20.843 5.754 7.339-4.165 9.916-13.498 5.751-20.841l-17.98-31.713c8.094-9.517 16.525-18.733 25.122-27.782l9.685 22.212c3.426 7.644 12.378 11.106 20.070 7.761 7.676-3.345 11.238-12.26 7.962-19.988l-14.485-33.201c9.033-8.664 18.3-17.044 27.802-25.173l7.292 23.066c2.543 8.062 11.14 12.511 19.2 9.969 8.064-2.542 12.51-11.139 9.971-19.202l-11.008-34.773c9.903-7.661 19.972-15.137 30.293-22.246l4.932 24.069c1.69 8.279 9.766 13.598 18.048 11.909 8.277-1.689 13.598-9.768 11.908-18.048l-7.309-35.693c10.62-6.592 21.461-12.83 32.465-18.833l2.359 24.269c0.836 8.396 8.311 14.518 16.691 13.699 8.397-0.819 14.537-8.28 13.734-16.677l-3.546-36.361c11.273-5.453 22.66-10.671 34.253-15.488l-0.183 24.653c-0.068 8.448 6.724 15.339 15.172 15.403h0.115c8.397 0 15.219-6.771 15.287-15.185l0.286-36.966c11.742-4.215 23.684-7.962 35.708-11.524l-2.773 24.623c-0.653 5.453 1.655 10.837 6.071 14.101 4.416 3.277 10.236 3.93 15.253 1.719 5.018-2.206 8.478-6.942 9.067-12.395l4.113-36.493c6.391-1.557 12.681-3.379 19.136-4.753 9.899-2.125 20.523-4.015 31.561-5.803 0.55 10.906 0.755 21.679 0.367 32.265zM882.925 408.153l-19.217-32.717c-4.301-7.258-13.649-9.668-20.911-5.402-7.275 4.262-9.698 13.615-5.453 20.89l14.805 25.173c-13.449 3.913-26.778 8.111-39.91 12.796l-22.379-30.276c-5.018-6.788-14.583-8.243-21.393-3.226-6.805 5.018-8.247 14.583-3.23 21.393l17.515 23.731c-12.915 5.321-25.66 10.991-38.204 17.045l-25.741-28.151c-5.705-6.204-15.356-6.639-21.594-0.951-6.221 5.687-6.673 15.339-1.003 21.577l20.019 21.897c-12.309 6.588-24.401 13.547-36.262 20.855l-28.582-25.357c-4.083-3.695-9.818-4.902-15.040-3.179-5.218 1.724-9.114 6.106-10.202 11.507s0.802 10.957 4.949 14.554l22.114 19.618c-11.524 7.846-22.763 16.107-33.805 24.622l-31.091-22.228c-4.45-3.213-10.27-3.797-15.258-1.54-4.983 2.257-8.397 7.027-8.913 12.48-0.521 5.453 1.907 10.77 6.387 13.948l24.337 17.395c-10.654 8.998-21.022 18.298-31.125 27.916l-33.455-18.985c-4.749-2.743-10.62-2.726-15.351 0.034-4.753 2.76-7.629 7.861-7.578 13.364 0.051 5.486 3.042 10.521 7.842 13.214l25.911 14.702c-9.668 10.069-19.102 20.356-28.186 30.977l-35.008-15.271c-5.018-2.258-10.854-1.639-15.305 1.622-4.446 3.262-6.788 8.631-6.153 14.1s4.147 10.169 9.216 12.31l27.23 11.876c-8.563 10.989-16.759 22.279-24.687 33.804l-36.433-11.524c-1.489-0.485-3.042-0.719-4.617-0.719-7.542 0-13.948 5.503-15.102 12.963s3.312 14.635 10.487 16.91l28.316 8.965c-7.39 11.825-14.434 23.868-21.124 36.179l-37.299-7.677c-1.004-0.218-2.041-0.318-3.078-0.318-7.845 0.017-14.418 5.955-15.204 13.766s4.466 14.937 12.143 16.509l28.652 5.871c-11.006 22.865-20.774 46.298-29.237 70.216-0.468-0.15-0.987-0.234-1.455-0.401l-0.602-0.636-4.633-1.171c-2.877-0.703-5.704-1.572-8.48-2.609-3.178-1.137-6.356-2.275-9.417-3.546-3.379-1.238-6.105-2.224-8.715-3.328-108.101-43.187-193.89-128.608-237.562-236.525-1.054-2.275-1.957-4.633-2.71-7.025l-0.769-2.175c-1.321-2.977-2.392-5.971-3.479-8.948-0.836-2.492-1.706-5.068-2.442-7.761-3.078-8.982-5.101-15.773-6.707-22.413-1.053-3.328-1.622-5.486-2.191-7.644-3.596-14.669-6.44-29.505-8.497-44.46 23.985-5.001 47.686-11.255 71.003-18.731l1.823 29.252c0.335 5.453 3.563 10.304 8.463 12.745 4.901 2.445 10.705 2.074 15.271-0.951 4.55-3.029 7.142-8.247 6.807-13.7l-2.375-38.067c13.097-4.919 26.009-10.219 38.755-15.889l4.951 29.321c1.405 8.329 9.3 13.931 17.629 12.527s13.933-9.301 12.528-17.63l-6.356-37.683c12.495-6.238 24.822-12.796 36.898-19.755l7.979 28.621c2.308 8.077 10.721 12.779 18.8 10.517 8.079-2.257 12.846-10.62 10.654-18.731l-10.287-36.881c11.775-7.509 23.283-15.407 34.59-23.586l10.989 27.785c1.99 5.099 6.573 8.747 11.976 9.549 5.42 0.802 10.855-1.335 14.251-5.636 3.395-4.297 4.249-10.069 2.208-15.172l-14.167-35.844c10.922-8.661 21.577-17.643 31.964-26.927l13.885 26.577c2.526 4.851 7.441 7.979 12.911 8.196s10.62-2.475 13.547-7.074c2.927-4.599 3.179-10.436 0.653-15.287l-17.711-33.92c9.967-9.737 19.703-19.721 29.086-30.042l16.358 24.653c3.012 4.565 8.247 7.159 13.7 6.827 5.453-0.337 10.317-3.563 12.762-8.465 2.441-4.902 2.074-10.722-0.956-15.27l-21.158-31.898c8.866-10.739 17.446-21.726 25.707-32.986l18.918 22.882c5.389 6.507 15.023 7.428 21.542 2.044 6.524-5.389 7.428-15.023 2.044-21.547l-24.303-29.402c7.744-11.558 15.151-23.386 22.195-35.443l21.039 20.638c3.9 3.849 9.553 5.303 14.822 3.849 5.269-1.472 9.365-5.636 10.722-10.923 1.353-5.286-0.218-10.923-4.134-14.737l-26.88-26.359c6.477-12.343 12.514-24.956 18.266-37.734l22.848 18.116c6.626 5.218 16.209 4.096 21.444-2.492 5.235-6.592 4.147-16.192-2.441-21.461l-29.675-23.552c2.377-5.986 5.001-11.84 7.211-17.911 3.162-8.947 5.986-17.527 8.678-25.941 3.115 0.734 6.059 1.37 9.335 2.223 12.011 3.093 23.868 6.793 35.507 11.089 11.959 4.198 23.684 9.084 35.11 14.601 90.842 42.103 163.934 114.876 206.434 205.534 5.585 11.456 10.522 23.215 14.784 35.226 4.318 11.622 8.047 23.467 11.174 35.46 3.529 13.495 6.106 25.455 7.863 36.578 1.353 7.71 2.475 15.373 3.409 22.98-12.442 1.993-24.35 4.083-35.456 6.473-6.323 1.459-12.48 3.23-18.735 4.753z" />
<glyph unicode="&#xe914;" glyph-name="american-football" d="M124.536 87.055c4.735-12.122 14.394-21.781 26.516-26.513 63.922-24.909 131.348-37.879 198.963-39.206l-264.684 264.683c1.231-67.614 14.3-135.134 39.206-198.963zM899.56 809.038c-4.736 12.122-14.396 21.781-26.517 26.516-62.596 24.338-128.602 37.406-194.795 39.111l260.42-260.517c-1.702 66.289-14.677 132.294-39.108 194.891zM254.471 705.626c-99.15-99.245-154.739-225.478-166.766-355.027l326.902-326.903c129.548 12.028 255.875 67.618 355.028 166.767 100.096 100.096 155.874 227.844 167.142 358.72l-323.588 323.493c-130.871-11.269-258.622-66.953-358.719-167.049zM694.158 634.128l3.977-3.977c9.284-9.28 9.284-24.243 0-33.524l-37.12-37.122 24.717-24.716c9.28-9.282 9.28-24.241 0-33.525l-3.977-3.977c-9.28-9.28-24.243-9.28-33.523 0l-24.717 24.717-74.057-74.052 24.717-24.717c9.28-9.28 9.28-24.243 0-33.523l-3.977-3.981c-9.28-9.28-24.243-9.28-33.523 0l-24.623 24.811-74.057-74.052 24.717-24.717c9.28-9.28 9.28-24.243 0-33.523l-3.977-3.977c-9.28-9.28-24.243-9.28-33.523 0l-24.717 24.717-37.122-37.124c-9.28-9.28-24.243-9.28-33.523 0l-3.977 3.977c-9.28 9.28-9.28 24.243 0 33.523l37.122 37.124-24.717 24.717c-9.28 9.28-9.28 24.243 0 33.523l3.977 3.977c9.281 9.28 24.243 9.28 33.524 0l24.716-24.717 74.056 74.057-24.717 24.717c-9.28 9.28-9.28 24.243 0 33.523l3.977 3.977c9.28 9.28 24.243 9.28 33.523 0l24.717-24.717 74.057 74.055-24.717 24.716c-9.28 9.281-9.28 24.243 0 33.524l3.977 3.977c9.28 9.28 24.243 9.28 33.523 0l24.717-24.716 37.12 37.122c9.186 9.091 24.149 9.091 33.429-0.095z" />
<glyph unicode="&#xe915;" glyph-name="search" d="M751.468 299.036c50.387 68.81 80.525 153.333 80.525 244.963 0 229.374-186.624 415.999-415.996 415.999-229.374 0-415.997-186.625-415.997-415.999 0-229.372 186.625-415.996 415.999-415.996 91.629 0 176.159 30.144 244.973 80.531l272.525-272.531 90.502 90.502c0 0-272.531 272.531-272.531 272.531zM415.998 256.002c-158.813 0-287.999 129.183-287.999 287.996s129.186 287.999 287.999 287.999c158.812 0 288.001-129.187 288.001-287.999s-129.19-287.996-288.001-287.996z" />
<glyph unicode="&#xe916;" glyph-name="left" d="M708-64l-512 512 512 512 120-120-392-392 392-392.004-120-119.996z" />
<glyph unicode="&#xe917;" glyph-name="right" d="M316 960l512-512-512-512-120 120 392 392-392 392.004 120 119.996z" />
<glyph unicode="&#xe918;" glyph-name="up" d="M0 252l512 512 512-512-120-120-392 392-392.004-392-119.996 120z" />
<glyph unicode="&#xe919;" glyph-name="flame" d="M723.34 751.151c9.775-107.326-35.192-136.625-35.192-136.625-60.6 308.388-234.589 345.475-234.589 345.475 43.011-169.826-158.346-437.193-158.346-437.193 9.775 111.235-39.102 150.271-39.102 150.271-19.547-122.944-76.243-167.852-107.52-294.707-78.334-332.379 153.822-419.878 232.709-439.727-53.265 42.749-154.834 170.687 64.439 429.957 0 0 3.91-81.971 21.504-95.629 0 0 91.881 74.149 82.106 238.113 0 0 328.891-218.657 100.962-575.085 495.779 140.444 73.029 815.149 73.029 815.149z" />
<glyph unicode="&#xe91a;" glyph-name="close" d="M1024 856.869l-103.131 103.131-408.869-408.869-408.868 408.869-103.131-103.131 408.868-408.869-408.868-408.869 103.131-103.131 408.868 408.869 408.869-408.869 103.131 103.131-408.869 408.869 408.869 408.869z" />
<glyph unicode="&#xe91b;" glyph-name="file" d="M660 660.001c-38.599 0-69.999 31.399-69.999 69.999v230h-357.999c-60.66 0-110-49.34-110-110v-804c0-60.656 49.339-110 110-110h559.996c60.665 0 110 49.344 110 110v613.999h-241.998zM286.001 239.998h145.44c16.56 0 30-13.44 30-29.998s-13.44-29.998-30-29.998h-145.44c-16.56 0-30 13.44-30 29.998s13.44 29.998 30 29.998zM256.001 370.001c0 16.56 13.44 30 30 30h440.002c16.558 0 29.998-13.44 29.998-30s-13.44-30-29.998-30h-440.002c-16.56 0-30 13.44-30 30zM726.003 560.001c16.558 0 29.998-13.44 29.998-30s-13.44-30-29.998-30h-440.002c-16.56 0-30 13.44-30 30s13.44 30 30 30h440.002zM649.999 729.992c0-5.52 4.48-10 10-10h228.62c-5.484 10.141-12.541 19.44-21.043 27.461l-192.837 182.439c-7.481 7.080-15.82 12.98-24.761 17.64l0.020-217.539z" />
<glyph unicode="&#xe91c;" glyph-name="plus" d="M972.801 572.928v-247.808h-337.92v-337.92h-247.808v337.92h-335.873v247.808h335.873v335.872h247.808v-335.872h337.92z" />
</font>
</defs>
</svg>
